<?xml version="1.0" standalone="no"?>
<!DOCTYPE svg PUBLIC "-//W3C//DTD SVG 20010904//EN"
 "http://www.w3.org/TR/2001/REC-SVG-20010904/DTD/svg10.dtd">
<svg version="1.0" xmlns="http://www.w3.org/2000/svg"
 width="700.000000pt" height="700.000000pt" viewBox="0 0 700.000000 700.000000"
 preserveAspectRatio="xMidYMid meet">
<metadata>
Created by potrace 1.14, written by Peter Selinger 2001-2017
</metadata>
<g transform="translate(0.000000,700.000000) scale(0.100000,-0.100000)"
fill="#000000" stroke="none">
<path d="M3280 6994 c-19 -2 -84 -9 -145 -14 -578 -56 -1180 -283 -1660 -625
-237 -169 -531 -446 -709 -670 -416 -521 -673 -1147 -748 -1820 -17 -154 -17
-585 0 -730 69 -588 254 -1099 567 -1570 126 -189 242 -332 410 -504 580 -595
1295 -943 2140 -1043 145 -17 576 -17 730 0 822 91 1556 447 2131 1034 203
206 348 390 487 618 274 449 432 915 499 1465 16 135 16 591 0 730 -100 846
-447 1557 -1043 2141 -555 542 -1249 874 -2029 970 -117 15 -553 27 -630 18z
m-1750 -2664 l0 -540 518 2 517 3 3 538 2 537 330 0 330 0 0 -1370 0 -1370
-330 0 -330 0 -2 563 -3 562 -517 3 -518 2 0 -565 0 -565 -335 0 -335 0 0
1370 0 1370 335 0 335 0 0 -540z m2852 3 l3 -538 518 -3 517 -2 0 540 0 540
335 0 335 0 0 -1370 0 -1370 -335 0 -335 0 0 565 0 565 -517 -2 -518 -3 -3
-562 -2 -563 -330 0 -330 0 0 1370 0 1370 330 0 330 0 2 -537z"/>
</g>
</svg>
