<?xml version="1.0" standalone="no"?>
<!DOCTYPE svg PUBLIC "-//W3C//DTD SVG 20010904//EN"
 "http://www.w3.org/TR/2001/REC-SVG-20010904/DTD/svg10.dtd">
<svg version="1.0" xmlns="http://www.w3.org/2000/svg"
 width="260.000000pt" height="260.000000pt" viewBox="0 0 260.000000 260.000000"
 preserveAspectRatio="xMidYMid meet">
<metadata>
Created by potrace 1.14, written by Peter Selinger 2001-2017
</metadata>
<g transform="translate(0.000000,260.000000) scale(0.100000,-0.100000)"
fill="#000000" stroke="none">
<path d="M661 2349 c-258 -50 -447 -230 -523 -496 -18 -63 -22 -103 -22 -208
0 -153 14 -217 79 -351 62 -129 147 -238 309 -399 178 -177 708 -633 757 -653
66 -26 92 -9 411 264 161 138 344 300 406 359 328 313 456 587 413 886 -15
103 -64 235 -114 311 -129 194 -365 312 -586 293 -164 -14 -295 -79 -417 -207
l-69 -73 -39 45 c-158 185 -388 272 -605 229z"/>
</g>
</svg>
