<svg xmlns="http://www.w3.org/2000/svg" width="32" height="32" viewBox="0 0 32 32" fill="none">
<path d="M32 16C32 19.1645 31.0616 22.2579 29.3035 24.8891C27.5454 27.5203 25.0466 29.5711 22.1229 30.7821C19.1993 31.9931 15.9823 32.3099 12.8786 31.6926C9.77486 31.0752 6.92394 29.5513 4.6863 27.3137C2.44866 25.0761 0.924806 22.2251 0.307443 19.1214C-0.309921 16.0177 0.00693252 12.8007 1.21793 9.87706C2.42894 6.95345 4.4797 4.45459 7.11088 2.69649C9.74207 0.938383 12.8355 0 16 0C20.2435 0 24.3131 1.68571 27.3137 4.68629C30.3143 7.68687 32 11.7565 32 16Z" fill="#F4F4F4"/>
<path d="M16 1.088C19.441 1.08891 22.7758 2.27955 25.4393 4.45813C28.1028 6.63671 29.9311 9.66921 30.6143 13.0417C31.2975 16.4141 30.7937 19.9191 29.1881 22.9626C27.5826 26.006 24.9741 28.4007 21.8048 29.7408C18.1605 31.2803 14.0539 31.3091 10.3884 29.8208C6.72289 28.3325 3.79873 25.4491 2.2592 21.8048C0.719675 18.1605 0.690889 14.0539 2.17918 10.3884C3.66747 6.72289 6.55092 3.79873 10.1952 2.2592C12.0317 1.4824 14.006 1.08406 16 1.088ZM16 0.716797C12.9773 0.716797 10.0224 1.61314 7.50911 3.29248C4.9958 4.97182 3.03692 7.35873 1.88017 10.1514C0.723419 12.944 0.42076 16.017 1.01047 18.9816C1.60017 21.9463 3.05576 24.6695 5.19315 26.8069C7.33054 28.9442 10.0538 30.3998 13.0184 30.9895C15.9831 31.5792 19.056 31.2766 21.8486 30.1198C24.6413 28.9631 27.0282 27.0042 28.7075 24.4909C30.3869 21.9776 31.2832 19.0227 31.2832 16C31.2832 13.993 30.8879 12.0056 30.1198 10.1514C29.3518 8.29713 28.226 6.61232 26.8069 5.19314C25.3877 3.77397 23.7029 2.64821 21.8486 1.88016C19.9944 1.11211 18.007 0.716797 16 0.716797Z" fill="#006EC3"/>
<path d="M16 1.60033C19.3211 1.60269 22.5393 2.75292 25.1094 4.85619C27.6796 6.95945 29.4438 9.88645 30.1031 13.1414C30.7625 16.3964 30.2765 19.7792 28.7274 22.7169C27.1784 25.6545 24.6616 27.9665 21.6032 29.2611C18.1049 30.6448 14.204 30.6044 10.7351 29.1487C7.26609 27.6931 4.50454 24.9376 3.04115 21.4719C1.57776 18.0062 1.52876 14.1054 2.90461 10.604C4.28047 7.10263 6.97194 4.2787 10.4032 2.73633C12.1736 1.98563 14.0771 1.59928 16 1.60033ZM16 1.45312C13.1244 1.45313 10.3133 2.30577 7.92226 3.90325C5.53118 5.50073 3.66745 7.77131 2.5667 10.4279C1.46595 13.0845 1.17762 16.0079 1.73816 18.8283C2.29871 21.6488 3.68295 24.2397 5.71588 26.2736C7.7488 28.3074 10.3391 29.6928 13.1593 30.2545C15.9796 30.8163 18.903 30.5293 21.5601 29.4297C24.2172 28.3301 26.4886 26.4674 28.0872 24.077C29.6857 21.6866 30.5396 18.876 30.5408 16.0003C30.5413 14.0907 30.1654 12.1997 29.4348 10.4353C28.7042 8.67094 27.6332 7.06781 26.2829 5.71749C24.9326 4.36717 23.3294 3.29612 21.5651 2.56552C19.8007 1.83493 17.9097 1.4591 16 1.45952V1.45312Z" fill="#006EC3"/>
<path d="M26.9921 15.9998C26.9921 18.1738 26.3474 20.299 25.1396 22.1066C23.9318 23.9143 22.215 25.3231 20.2065 26.1551C18.198 26.9871 15.9879 27.2047 13.8556 26.7806C11.7234 26.3565 9.7648 25.3096 8.22754 23.7723C6.69028 22.2351 5.6434 20.2765 5.21927 18.1442C4.79514 16.012 5.01282 13.8019 5.84478 11.7934C6.67674 9.78483 8.08561 8.06811 9.89323 6.8603C11.7009 5.65248 13.826 5.00781 16.0001 5.00781C18.9153 5.00781 21.7112 6.1659 23.7726 8.22729C25.834 10.2887 26.9921 13.0846 26.9921 15.9998Z" fill="#DADADA"/>
<path d="M26.8095 16.054C26.8102 18.1821 26.1797 20.2626 24.9977 22.0323C23.8158 23.802 22.1356 25.1814 20.1697 25.9961C18.2037 26.8108 16.0403 27.0241 13.9531 26.6091C11.8658 26.1941 9.94857 25.1693 8.44379 23.6646C6.93901 22.1598 5.91431 20.2425 5.49929 18.1553C5.08428 16.0681 5.2976 13.9047 6.11228 11.9387C6.92695 9.97272 8.30638 8.29252 10.0761 7.11061C11.8458 5.92871 13.9262 5.2982 16.0543 5.29883C18.9068 5.29883 21.6424 6.43196 23.6594 8.44895C25.6764 10.4659 26.8095 13.2016 26.8095 16.054Z" fill="#F4F4F4"/>
<g style="mix-blend-mode:multiply">
<path d="M27.6288 16.2397C27.2096 16.0957 26.7264 16.3709 26.4 16.6045C25.9691 16.9245 25.5733 17.2892 25.2192 17.6925C24.8576 18.0797 24.4384 18.3933 24.0512 18.7517C23.8731 18.9438 23.684 19.1254 23.4848 19.2957C23.4197 19.2909 23.3579 19.265 23.3088 19.2221C23.1456 19.0813 23.2768 18.6141 23.3088 18.4477C23.4121 18.1643 23.4419 17.8593 23.3952 17.5613C23.184 16.8637 22.2112 17.5613 21.8848 17.8077C21.5584 18.0541 21.2992 18.4733 20.9248 18.4989C20.5504 18.5245 20.416 18.0733 20.4064 17.7693C20.4064 17.2669 20.6528 16.8093 20.8256 16.3453C21.0964 15.5777 21.4596 14.8459 21.9072 14.1661C22.1144 13.9233 22.273 13.643 22.3744 13.3405C22.4043 13.2348 22.4117 13.1241 22.3962 13.0154C22.3808 12.9067 22.3427 12.8024 22.2846 12.7093C22.2264 12.6162 22.1494 12.5363 22.0585 12.4747C21.9676 12.4131 21.8649 12.3712 21.7568 12.3517C21.3312 12.2685 20.8608 12.6365 20.5824 12.9021C20.2789 13.2123 20.0281 13.5701 19.84 13.9613C19.6421 14.3561 19.4648 14.7609 19.3088 15.1741C19.232 15.3629 19.152 15.5485 19.0656 15.7341C18.9809 15.9418 18.9125 16.1558 18.8608 16.3741C18.8353 16.4685 18.7861 16.5549 18.7177 16.6249C18.6494 16.6949 18.5642 16.7463 18.4704 16.7741C18.1504 16.8509 18.1504 16.3293 18.1504 16.1629C18.2101 15.6997 18.3174 15.244 18.4704 14.8029C18.5888 14.3933 18.7136 13.9869 18.864 13.5901C19.0144 13.1933 19.2 12.7997 19.3536 12.3901C19.4816 12.0701 19.936 10.7901 19.2928 10.6845C18.6496 10.5789 18.1472 11.4845 17.8112 11.9101C17.2991 12.6109 16.8585 13.3614 16.496 14.1501C16.4064 14.3293 16.3104 14.5021 16.2048 14.6749C16.16 14.7517 16.1088 14.8285 16.0576 14.9021L15.952 15.0493C15.8496 15.1805 15.7408 15.3149 15.632 15.4397C15.5712 15.5101 15.5072 15.5709 15.44 15.6349C15.5008 15.5773 15.44 15.6349 15.3792 15.6605L15.3248 15.6413C15.3151 15.6221 15.3021 15.6048 15.2864 15.5901C15.2359 15.5154 15.2001 15.4317 15.1808 15.3437C15.1054 14.9512 15.1363 14.5457 15.2704 14.1693C15.4109 13.8183 15.5097 13.4521 15.5648 13.0781C15.5648 12.8605 15.6864 12.5309 15.5648 12.3325C15.3952 12.0125 14.2592 13.9517 14.1632 14.1277C13.6128 15.1485 13.1008 16.1789 12.2688 17.0077C12.144 17.1325 11.8912 17.3917 11.6992 17.4045C11.3312 17.4301 11.2224 16.8797 11.2032 16.6237C11.1911 16.2322 11.2408 15.8413 11.3504 15.4653C11.6107 14.6373 11.9393 13.8324 12.3328 13.0589C12.6464 12.3517 13.12 11.7437 13.44 11.0685C13.6128 10.7229 13.8336 9.95166 13.3248 9.78846C13.178 9.76791 13.0286 9.77868 12.8863 9.82004C12.744 9.86141 12.6121 9.93244 12.4992 10.0285C12.193 10.2319 11.9208 10.4824 11.6928 10.7709C11.2172 11.3885 10.8236 12.065 10.5216 12.7837C10.0768 13.7253 9.71487 14.7039 9.44001 15.7085C9.34081 16.0733 9.36001 16.4605 9.25441 16.8253C9.20641 16.9789 8.96321 17.4653 8.75841 17.4109C8.49921 17.3277 8.69121 16.6621 8.72321 16.4861C8.79429 16.1256 8.9149 15.7767 9.08161 15.4493C9.17441 15.2669 9.87841 14.3389 9.66721 14.1373C9.45601 13.9357 8.70721 14.3677 8.57601 14.5149C8.07361 15.0141 7.64161 15.9389 7.22881 16.5085C6.98241 16.8477 6.56321 17.3405 6.10241 17.0557C5.64161 16.7709 5.61921 15.9997 5.76001 15.5485C6.00001 14.7837 6.75201 14.3325 7.38241 13.9133C7.82401 13.6221 8.95681 13.0493 8.98241 12.4189C9.00801 11.7885 8.02241 12.2493 7.76321 12.3901C6.97636 12.87 6.3054 13.518 5.79841 14.2877C5.32481 14.9629 4.90241 15.7917 4.96641 16.6397C5.01121 17.2445 5.39841 17.9805 6.11201 17.8557C6.92481 17.7117 7.42401 16.6685 7.80481 16.0413C8.04401 15.6302 8.30907 15.2347 8.59841 14.8573C8.72321 14.6973 9.01761 14.2685 9.23841 14.2493C9.70561 14.2045 8.97281 15.2573 8.87681 15.4237C8.51841 16.0253 7.77601 17.0237 7.97441 17.7757C8.14081 18.3965 8.82881 18.1501 9.17441 17.8365C9.69601 17.3629 9.86561 16.6397 10.0096 15.9773C10.3744 14.2909 10.6496 12.5533 11.776 11.1773C11.9488 10.9661 12.496 10.2013 12.832 10.3645C13.168 10.5277 12.6688 11.0813 12.544 11.2509C12.2309 11.7027 11.9507 12.1764 11.7056 12.6685C11.2129 13.5246 10.8557 14.4519 10.6464 15.4173C10.512 16.1277 10.3264 17.4269 11.1104 17.8493C11.84 18.2397 12.48 17.3725 12.8768 16.8957C13.3984 16.2557 13.6928 15.4621 14.0832 14.7421C13.8336 15.4461 13.792 16.2877 14.2656 16.8957C14.5632 17.2797 15.1488 17.1805 15.5456 17.0333C15.9805 16.822 16.3564 16.5065 16.64 16.1149C17.1936 15.4461 17.4336 14.5981 17.6704 13.7789C17.7792 13.3917 17.8816 13.0045 18.0096 12.6237C18.1498 12.2249 18.3435 11.847 18.5856 11.5005C18.68 11.3495 18.799 11.2154 18.9376 11.1037C19.2352 10.8797 19.3216 11.2381 19.3344 11.4493C19.3108 11.902 19.192 12.3448 18.9856 12.7485C18.6596 13.5469 18.3859 14.3657 18.1664 15.1997C18.0789 15.559 18.0137 15.9234 17.9712 16.2909C17.9447 16.4226 17.958 16.5592 18.0092 16.6834C18.0605 16.8076 18.1475 16.9138 18.2592 16.9885C18.7104 17.2669 19.248 16.7261 19.5392 16.4253C19.9574 15.9665 20.3096 15.4517 20.5856 14.8957C20.6656 14.7421 20.6944 14.5757 20.7872 14.4157C20.88 14.2557 21.1072 14.1245 21.136 14.4317C21.1192 14.6411 21.0684 14.8465 20.9856 15.0397C20.9224 15.3665 20.8325 15.6876 20.7168 15.9997C20.5625 16.4029 20.43 16.8141 20.32 17.2317C20.1696 17.7917 19.8208 18.7933 20.64 19.0525C21.0112 19.1741 21.408 18.9277 21.712 18.7325C21.904 18.6173 22.096 18.4989 22.2816 18.3709C22.3764 18.3041 22.4759 18.2442 22.5792 18.1917C22.5792 18.2429 22.5504 18.2909 22.5408 18.3325C22.5043 18.4956 22.4818 18.6615 22.4736 18.8285C22.4291 19.1148 22.4785 19.4078 22.6144 19.6637C22.9536 20.1821 23.6352 19.9133 24.0544 19.6637C25.1392 19.0237 25.8176 17.8173 26.9344 17.1773C27.0976 17.0941 27.0528 17.5389 27.1264 17.5965C27.7056 18.0477 28.528 16.5469 27.6288 16.2397Z" fill="#EBEAEA"/>
</g>
<g style="mix-blend-mode:multiply">
<path d="M26.608 18.2688C26.4388 18.4015 26.3175 18.5858 26.2624 18.7936C26.2536 18.8435 26.2563 18.8948 26.2701 18.9436C26.284 18.9923 26.3087 19.0373 26.3424 19.0752L26.384 19.104C26.4018 19.1231 26.4238 19.138 26.4481 19.1474C26.4725 19.1568 26.4987 19.1606 26.5248 19.1584C26.7135 19.1509 26.8954 19.0861 27.0464 18.9728L27.1232 18.9024C27.0592 18.96 27.0752 18.9472 27.1648 18.8672C27.2242 18.8011 27.2718 18.7254 27.3056 18.6432C27.3356 18.5721 27.3431 18.4935 27.3271 18.4179C27.3111 18.3424 27.2723 18.2736 27.216 18.2208C27.1286 18.1475 27.0159 18.1115 26.9022 18.1205C26.7885 18.1295 26.6828 18.1827 26.608 18.2688Z" fill="#EBEAEA"/>
</g>
<g style="mix-blend-mode:multiply">
<path d="M26.0255 19.4783C26.0053 19.476 25.9849 19.476 25.9647 19.4783C25.9014 19.4778 25.8396 19.498 25.7887 19.5359C25.7511 19.5655 25.7186 19.6012 25.6927 19.6415C25.6694 19.6799 25.6531 19.7221 25.6447 19.7663C25.6415 19.7875 25.6415 19.8091 25.6447 19.8303C25.6447 19.8463 25.6447 19.8623 25.6447 19.8815C25.6559 19.9055 25.6751 19.9247 25.6991 19.9359C25.7137 19.9469 25.7299 19.9556 25.7471 19.9615C25.8002 19.978 25.857 19.9787 25.9105 19.9633C25.9639 19.948 26.0117 19.9173 26.0479 19.8751C26.0755 19.8431 26.0965 19.8061 26.1097 19.766C26.1229 19.7259 26.128 19.6836 26.1247 19.6415C26.1208 19.5979 26.1015 19.5571 26.0703 19.5263C26.0605 19.5062 26.0449 19.4895 26.0255 19.4783Z" fill="#EBEAEA"/>
</g>
<path opacity="0.6" d="M27.4784 16.176C27.0592 16.032 26.576 16.304 26.2464 16.5376C25.817 16.8593 25.4214 17.2239 25.0656 17.6256C24.7072 18.016 24.288 18.3264 23.8976 18.688C23.7203 18.8808 23.5311 19.0625 23.3312 19.232C23.2664 19.2259 23.205 19.2002 23.1552 19.1584C22.992 19.0144 23.1232 18.5504 23.1552 18.384C23.2556 18.0999 23.2842 17.7954 23.2384 17.4976C23.0272 16.7968 22.0576 17.4976 21.7312 17.744C21.4048 17.9904 21.1424 18.4064 20.752 18.432C20.3616 18.4576 20.2464 18.0064 20.2368 17.7056C20.2368 17.2 20.4832 16.7456 20.656 16.2816C20.9263 15.5133 21.2884 14.7805 21.7344 14.0992C21.942 13.8562 22.1017 13.576 22.2048 13.2736C22.2341 13.1679 22.2411 13.0573 22.2251 12.9487C22.2092 12.8402 22.1708 12.7363 22.1124 12.6435C22.0539 12.5507 21.9767 12.4711 21.8857 12.4099C21.7948 12.3487 21.692 12.3071 21.584 12.288C21.1584 12.2016 20.688 12.5696 20.4096 12.8384C20.1094 13.1487 19.8609 13.5053 19.6736 13.8944C19.4688 14.288 19.3088 14.6976 19.1424 15.1072C19.0656 15.296 18.9856 15.4848 18.8992 15.6704C18.816 15.8786 18.7475 16.0925 18.6944 16.3104C18.669 16.4045 18.6197 16.4905 18.5513 16.56C18.4829 16.6295 18.3977 16.6802 18.304 16.7072C17.984 16.7872 17.984 16.2656 17.984 16.096C18.0422 15.6336 18.1494 15.1788 18.304 14.7392C18.4256 14.3296 18.5472 13.9232 18.6976 13.5232C18.848 13.1232 19.056 12.7328 19.2096 12.3296C19.3344 12.0096 19.7888 10.7296 19.1488 10.6208C18.5088 10.512 17.9936 11.4208 17.6576 11.84C17.1473 12.5414 16.7078 13.2918 16.3456 14.08C16.2528 14.2592 16.1568 14.4352 16.0544 14.6048C16.0064 14.6848 15.9552 14.7584 15.904 14.8352C15.904 14.8352 15.7856 15.0016 15.8016 14.9824C15.696 15.1136 15.5904 15.2448 15.4816 15.3728C15.4208 15.44 15.3536 15.504 15.2864 15.568C15.3472 15.5104 15.2864 15.552 15.2256 15.5936L15.1744 15.5744C15.1636 15.555 15.1495 15.5377 15.1328 15.5232C15.082 15.4478 15.0471 15.3629 15.0304 15.2736C14.9531 14.8825 14.983 14.4778 15.1168 14.1024C15.2569 13.7513 15.3557 13.3851 15.4112 13.0112C15.4272 12.7936 15.536 12.464 15.4272 12.2624C15.2576 11.9424 14.1216 13.8848 14.0288 14.0576C13.4784 15.0784 12.9632 16.112 12.1344 16.9376C12.0064 17.0624 11.7536 17.3216 11.5648 17.3344C11.1968 17.36 11.088 16.8096 11.0656 16.5504C11.0505 16.1575 11.0958 15.7647 11.2 15.3856C11.4609 14.5578 11.7895 13.753 12.1824 12.9792C12.4832 12.288 12.9568 11.6768 13.2928 11.0016C13.4656 10.6592 13.6832 9.88475 13.1776 9.72155C13.0309 9.70162 12.8816 9.71268 12.7394 9.75402C12.5971 9.79536 12.4652 9.86606 12.352 9.96155C12.0461 10.1667 11.7732 10.417 11.5424 10.704C11.0678 11.3217 10.6752 11.9982 10.3744 12.7168C9.93092 13.6593 9.56802 14.6378 9.2896 15.6416C9.1936 16.0096 9.2128 16.3968 9.104 16.7584C9.056 16.912 8.8128 17.3984 8.6112 17.3472C8.3488 17.264 8.5408 16.5984 8.576 16.4224C8.6511 16.0574 8.78054 15.7057 8.96 15.3792C9.0528 15.1968 9.7536 14.2656 9.5424 14.064C9.3312 13.8624 8.464 14.5984 8.32 14.7424C7.8176 15.2448 7.504 15.8688 7.0912 16.4352C6.8416 16.7776 6.4256 17.2704 5.9616 16.9856C5.4976 16.7008 5.4656 15.9424 5.6128 15.4848C5.8528 14.72 6.6016 14.2656 7.232 13.8496C7.6736 13.5552 8.8064 12.9824 8.832 12.352C8.8576 11.7216 7.872 12.1824 7.6096 12.3264C6.82284 12.805 6.15184 13.452 5.6448 14.2208C5.1744 14.8992 4.7488 15.7248 4.8128 16.576C4.8576 17.1808 5.248 17.9168 5.9616 17.7888C6.7712 17.6448 7.2704 16.6016 7.6512 15.9776C7.89076 15.5657 8.15581 15.1692 8.4448 14.7904C8.5728 14.6336 8.8672 14.2016 9.0848 14.1824C9.5552 14.1408 8.8224 15.1904 8.7232 15.3568C8.3648 15.9616 7.6224 16.9568 7.824 17.7088C7.9872 18.3328 8.6752 18.0832 9.0208 17.7696C9.5456 17.296 9.712 16.5728 9.856 15.9136C10.224 14.224 10.496 12.4896 11.6256 11.1136C11.7952 10.9024 12.3424 10.1536 12.6816 10.304C13.0208 10.4544 12.5152 11.0208 12.3904 11.1904C12.0784 11.6429 11.7983 12.1166 11.552 12.608C11.0701 13.4673 10.7226 14.3954 10.5216 15.36C10.3872 16.0704 10.2016 17.3696 10.9856 17.792C11.6928 18.1728 12.3392 17.3184 12.7264 16.832C13.2448 16.192 13.5424 15.3984 13.9328 14.6784C13.68 15.3856 13.6384 16.224 14.112 16.832C14.4128 17.2192 14.9984 17.12 15.392 16.9728C15.825 16.7615 16.2005 16.4486 16.4864 16.0608C17.04 15.392 17.28 14.5408 17.5168 13.7248C17.6288 13.3376 17.7312 12.9504 17.8592 12.5664C17.9983 12.1677 18.191 11.7898 18.432 11.4432C18.5259 11.2899 18.6449 11.1536 18.784 11.04C19.0784 10.8128 19.1648 11.1744 19.1776 11.3856C19.1543 11.8374 19.0354 12.2791 18.8288 12.6816C18.5062 13.4809 18.2337 14.2995 18.0128 15.1328C17.9222 15.4925 17.8569 15.8582 17.8176 16.2272C17.7895 16.3586 17.8016 16.4954 17.8524 16.6199C17.9032 16.7443 17.9903 16.8506 18.1024 16.9248C18.5568 17.2 19.0912 16.6592 19.3824 16.3616C19.8009 15.9023 20.154 15.3876 20.432 14.832C20.5088 14.6784 20.5408 14.512 20.6336 14.352C20.7264 14.192 20.9536 14.0608 20.9792 14.352C20.9657 14.5548 20.9215 14.7544 20.848 14.944C20.7847 15.2711 20.6937 15.5922 20.576 15.904C20.413 16.3082 20.2741 16.7217 20.16 17.1424C20.0096 17.7024 19.6608 18.7008 20.4608 18.9632C20.832 19.0848 21.232 18.8352 21.536 18.6432C21.728 18.5312 21.92 18.4096 22.1024 18.2848C22.1968 18.2192 22.2963 18.1614 22.4 18.112C22.4 18.1632 22.3712 18.2144 22.3616 18.2528C22.3223 18.4165 22.2987 18.5837 22.2912 18.752C22.2476 19.0386 22.2982 19.3316 22.4352 19.5872C23.2 20.7584 24.9376 18.7328 25.4432 18.176C25.7067 17.8816 26.008 17.6233 26.3392 17.408C26.4192 17.3568 26.5856 17.1968 26.7488 17.088C26.9152 17.0048 26.8704 17.4464 26.944 17.5072C27.552 17.984 28.3776 16.4832 27.4784 16.176Z" fill="#A96A26"/>
<path opacity="0.4" d="M27.0656 18.1539C26.9775 18.0822 26.8652 18.0471 26.752 18.0561C26.6387 18.065 26.5333 18.1172 26.4576 18.2019C26.2891 18.3352 26.1679 18.5192 26.112 18.7267C26.102 18.7766 26.104 18.8282 26.1179 18.8772C26.1318 18.9261 26.1572 18.9711 26.192 19.0083L26.2336 19.0403C26.2509 19.0599 26.2729 19.0748 26.2975 19.0838C26.3221 19.0927 26.3485 19.0954 26.3744 19.0915C26.5576 19.081 26.7335 19.0164 26.88 18.9059L26.9568 18.8387C26.896 18.8963 26.9088 18.8835 27.0016 18.8003C27.0617 18.7365 27.1084 18.6615 27.1392 18.5795C27.1715 18.5094 27.1817 18.4312 27.1686 18.3552C27.1554 18.2792 27.1195 18.209 27.0656 18.1539Z" fill="#A96A26"/>
<path opacity="0.4" d="M25.9359 19.4531C25.9196 19.4334 25.897 19.4198 25.8719 19.4147C25.8528 19.4125 25.8334 19.4125 25.8143 19.4147C25.7505 19.4147 25.6885 19.4361 25.6383 19.4755C25.5982 19.5034 25.5644 19.5394 25.5391 19.5811C25.5162 19.6194 25.501 19.6618 25.4943 19.7059C25.4895 19.7259 25.4895 19.7467 25.4943 19.7667C25.4929 19.7848 25.4929 19.803 25.4943 19.8211C25.5062 19.8435 25.5238 19.8623 25.5455 19.8755C25.56 19.8866 25.5762 19.8952 25.5935 19.9011C25.6469 19.9169 25.7038 19.9168 25.7572 19.9009C25.8106 19.885 25.8582 19.8539 25.8943 19.8115C25.9503 19.7483 25.9791 19.6655 25.9743 19.5811C25.9762 19.5354 25.9626 19.4903 25.9359 19.4531Z" fill="#A96A26"/>
<g style="mix-blend-mode:screen">
<g style="mix-blend-mode:screen" opacity="0.4">
<path d="M8.5569 12.2078C8.00545 12.322 7.48693 12.5594 7.0401 12.9022C6.56673 13.2978 6.15854 13.7654 5.8305 14.2878C5.8017 14.3326 5.8529 14.355 5.8849 14.323C6.0673 14.1374 6.2209 13.923 6.4033 13.7342C6.60579 13.5214 6.81942 13.3195 7.0433 13.1294C7.50583 12.7725 8.00974 12.4727 8.5441 12.2366C8.5441 12.2366 8.5761 12.2014 8.5569 12.2078Z" fill="white"/>
</g>
<g style="mix-blend-mode:screen" opacity="0.4">
<path d="M5.89449 17.4786C5.76905 17.4712 5.64676 17.4364 5.5362 17.3767C5.42563 17.317 5.32948 17.2339 5.25449 17.133C5.08775 16.9212 4.99552 16.6602 4.99209 16.3906C4.99209 16.3906 4.97289 16.3906 4.96969 16.3906C4.92489 16.9282 5.22569 17.6194 5.85929 17.5554C5.91049 17.5586 5.94569 17.485 5.89449 17.4786Z" fill="white"/>
</g>
<g style="mix-blend-mode:screen" opacity="0.4">
<path d="M8.93757 17.5449C8.75197 17.6729 8.41597 17.8265 8.20797 17.6633C8.20797 17.6633 8.18237 17.6633 8.18877 17.6825C8.22069 17.7502 8.2753 17.8045 8.34312 17.8361C8.41093 17.8677 8.48766 17.8745 8.55997 17.8553C8.72213 17.8138 8.86813 17.7246 8.97917 17.5993C9.00797 17.5641 8.97917 17.5161 8.93757 17.5449Z" fill="white"/>
</g>
<g style="mix-blend-mode:screen" opacity="0.4">
<path d="M15.1584 15.7274C14.1984 15.6762 15.2768 13.2378 15.3024 12.761C15.3024 12.745 15.28 12.761 15.28 12.761C15.1612 13.1292 15.0191 13.4894 14.8544 13.8394C14.7351 14.1344 14.6471 14.4412 14.592 14.7546C14.5472 15.1034 14.576 15.9322 15.1456 15.7786C15.1648 15.7754 15.1936 15.7274 15.1584 15.7274Z" fill="white"/>
</g>
<g style="mix-blend-mode:screen" opacity="0.4">
<path d="M16.4737 15.6797C16.2826 15.9424 16.0451 16.1679 15.7729 16.3453C15.7281 16.3837 15.7441 16.4541 15.8049 16.4157C16.1183 16.2621 16.366 16.0008 16.5025 15.6797C16.5089 15.6797 16.4833 15.6797 16.4737 15.6797Z" fill="white"/>
</g>
<g style="mix-blend-mode:screen" opacity="0.4">
<path d="M21.741 12.4799C21.3154 12.3071 20.9634 12.5439 20.637 12.7999C20.637 12.7999 20.637 12.8447 20.637 12.8319C20.8631 12.6854 21.1259 12.6055 21.3954 12.6015C21.7154 12.6175 21.8882 13.0431 21.8594 13.3023C21.8594 13.3407 21.901 13.3311 21.9138 13.3023C22.0482 13.0719 22.0546 12.6015 21.741 12.4799Z" fill="white"/>
</g>
<g style="mix-blend-mode:screen" opacity="0.4">
<path d="M21.6608 13.7146C21.632 13.7594 21.6 13.7978 21.5712 13.8426C21.5424 13.8874 21.5712 13.913 21.5936 13.913C21.6115 13.9132 21.6289 13.9067 21.6425 13.8949C21.6561 13.8832 21.6648 13.8668 21.6672 13.849C21.6672 13.8042 21.6672 13.7594 21.6672 13.7146C21.6672 13.6698 21.6672 13.705 21.6608 13.7146Z" fill="white"/>
</g>
<g style="mix-blend-mode:screen" opacity="0.4">
<path d="M23.6001 19.3987C23.2801 19.5203 22.9153 19.6579 22.6785 19.3155C22.5025 19.0595 22.5473 18.6755 22.5313 18.3555C22.4673 18.7715 22.3361 19.1715 22.6241 19.5299C22.9121 19.8883 23.3697 19.6643 23.6417 19.4627C23.6801 19.4499 23.6801 19.3731 23.6001 19.3987Z" fill="white"/>
</g>
<g style="mix-blend-mode:screen" opacity="0.4">
<path d="M26.9057 18.2689C26.8967 18.2405 26.8787 18.2158 26.8545 18.1985C26.8302 18.1812 26.801 18.1722 26.7713 18.1729C26.6607 18.1869 26.5598 18.2431 26.4897 18.3297C26.4289 18.3937 26.3137 18.5377 26.3777 18.6337C26.3816 18.6711 26.396 18.7066 26.4193 18.7361C26.4865 18.8225 26.6209 18.7361 26.6849 18.7009C26.7239 18.6709 26.7593 18.6366 26.7905 18.5985L26.8353 18.5377C26.8065 18.5889 26.8609 18.5025 26.8609 18.5025C26.8874 18.4705 26.9055 18.4323 26.9133 18.3915C26.9212 18.3506 26.9185 18.3084 26.9057 18.2689Z" fill="white"/>
</g>
<g style="mix-blend-mode:screen" opacity="0.4">
<path d="M25.7377 19.459C25.7243 19.4609 25.7115 19.466 25.7004 19.4738C25.6893 19.4816 25.6801 19.4919 25.6737 19.5038C25.6737 19.5262 25.6481 19.5678 25.6737 19.587C25.7121 19.6222 25.7569 19.587 25.7761 19.5422C25.7953 19.4974 25.7921 19.4462 25.7377 19.459Z" fill="white"/>
</g>
<g style="mix-blend-mode:screen" opacity="0.4">
<path d="M27.4304 16.7296C27.3987 16.7055 27.3599 16.6924 27.32 16.6924C27.2801 16.6924 27.2413 16.7055 27.2096 16.7296C27.1648 16.7558 27.1262 16.7914 27.0963 16.834C27.0665 16.8765 27.0462 16.9249 27.0368 16.976C27.0303 17.0001 27.0295 17.0254 27.0345 17.0498C27.0395 17.0743 27.0501 17.0972 27.0656 17.1168L27.1232 17.152C27.1432 17.1632 27.1658 17.1691 27.1888 17.1691C27.2118 17.1691 27.2343 17.1632 27.2544 17.152C27.325 17.117 27.3831 17.0611 27.4208 16.992C27.4481 16.9541 27.4636 16.9089 27.4653 16.8622C27.467 16.8155 27.4549 16.7694 27.4304 16.7296Z" fill="white"/>
</g>
</g>
<path opacity="0.4" d="M7.27359 13.3154C7.19679 13.3154 7.12319 13.4658 7.21599 13.4658C7.30879 13.4658 7.35999 13.3154 7.27359 13.3154Z" fill="#7B4E19"/>
<path opacity="0.4" d="M7.90718 12.9092C7.84958 12.9092 7.79518 13.018 7.86558 13.018C7.93598 13.018 7.97438 12.9092 7.90718 12.9092Z" fill="#7B4E19"/>
<path opacity="0.4" d="M5.85915 14.4541C5.83035 14.4541 5.79835 14.5181 5.83675 14.5181C5.87515 14.5181 5.90075 14.4541 5.85915 14.4541Z" fill="#7B4E19"/>
<path opacity="0.4" d="M5.44011 15.4235C5.42091 15.4075 5.39531 15.4235 5.38571 15.4427V15.4587C5.36651 15.4875 5.38571 15.5099 5.42411 15.4907C5.42411 15.4907 5.46571 15.4427 5.44011 15.4235Z" fill="#7B4E19"/>
<path opacity="0.4" d="M6.61439 17.261C6.56639 17.2162 6.50239 17.2898 6.49279 17.3346C6.49209 17.3412 6.49299 17.348 6.49543 17.3542C6.49786 17.3604 6.50175 17.3659 6.50677 17.3703C6.51179 17.3747 6.51779 17.3778 6.52427 17.3794C6.53075 17.381 6.53751 17.381 6.54399 17.3794C6.59839 17.3794 6.66239 17.3058 6.61439 17.261Z" fill="#7B4E19"/>
<path opacity="0.4" d="M6.09911 17.4238C6.07671 17.4238 6.05431 17.4718 6.09911 17.4718C6.14391 17.4718 6.13111 17.4238 6.09911 17.4238Z" fill="#7B4E19"/>
<path opacity="0.4" d="M9.18073 17.2988C9.14553 17.2988 9.11033 17.3692 9.15513 17.3692C9.19993 17.3692 9.22553 17.2988 9.18073 17.2988Z" fill="#7B4E19"/>
<path opacity="0.4" d="M9.45599 16.2592C9.44447 16.263 9.43392 16.2692 9.42508 16.2775C9.41623 16.2858 9.40931 16.2959 9.40479 16.3072C9.40479 16.3456 9.42399 16.368 9.45919 16.3552C9.47486 16.349 9.48805 16.3378 9.49672 16.3233C9.5054 16.3088 9.50908 16.2919 9.50719 16.2752C9.50079 16.2464 9.47519 16.2464 9.45599 16.2592Z" fill="#7B4E19"/>
<path opacity="0.4" d="M13.2096 10.7457C13.2194 10.7494 13.2303 10.7495 13.2403 10.746C13.2502 10.7425 13.2586 10.7356 13.264 10.7265C13.3376 10.6369 13.136 10.6945 13.2096 10.7457Z" fill="#7B4E19"/>
<path opacity="0.4" d="M13.1488 10.064C13.1406 10.0617 13.1319 10.0621 13.1239 10.0649C13.1159 10.0678 13.1089 10.073 13.104 10.08C13.1008 10.0847 13.0991 10.0903 13.0991 10.096C13.0991 10.1017 13.1008 10.1072 13.104 10.112C13.12 10.1472 13.1648 10.112 13.1744 10.0896C13.184 10.0672 13.1648 10.0704 13.1488 10.064Z" fill="#7B4E19"/>
<path opacity="0.4" d="M11.6513 17.459C11.5937 17.459 11.5361 17.5774 11.6097 17.5774C11.6833 17.5774 11.7281 17.459 11.6513 17.459Z" fill="#7B4E19"/>
<path opacity="0.4" d="M11.0049 17.4492C10.9633 17.4492 10.9185 17.5324 10.9761 17.5324C11.0337 17.5324 11.0593 17.4492 11.0049 17.4492Z" fill="#7B4E19"/>
<path opacity="0.4" d="M16.4576 15.2512C16.4352 15.232 16.4 15.2512 16.384 15.2672H16.368C16.368 15.2832 16.336 15.3216 16.368 15.344C16.4 15.3664 16.4256 15.344 16.4448 15.344V15.328C16.4507 15.3239 16.4558 15.3186 16.4597 15.3124C16.4636 15.3063 16.4662 15.2995 16.4674 15.2923C16.4686 15.2851 16.4683 15.2778 16.4666 15.2708C16.4649 15.2637 16.4619 15.2571 16.4576 15.2512Z" fill="#7B4E19"/>
<path opacity="0.4" d="M15.3599 16.3682C15.3055 16.3682 15.2511 16.477 15.3215 16.477C15.3919 16.477 15.4367 16.3682 15.3599 16.3682Z" fill="#7B4E19"/>
<path opacity="0.4" d="M14.4801 16.1699C14.4385 16.1699 14.4001 16.2499 14.4513 16.2499C14.5025 16.2499 14.5281 16.1699 14.4801 16.1699Z" fill="#7B4E19"/>
<path opacity="0.4" d="M14.4927 15.7344C14.4543 15.7344 14.4191 15.8048 14.4671 15.8048C14.5151 15.8048 14.5375 15.7344 14.4927 15.7344Z" fill="#7B4E19"/>
<path opacity="0.4" d="M14.6303 16.7999C14.6253 16.7961 14.6191 16.7939 14.6127 16.7939C14.6064 16.7939 14.6002 16.7961 14.5951 16.7999C14.5759 16.8223 14.5759 16.8703 14.6143 16.8607C14.6527 16.8511 14.6687 16.8159 14.6303 16.7999Z" fill="#7B4E19"/>
<path opacity="0.4" d="M18.0352 11.6641C18.0032 11.6641 17.9744 11.7281 18.0128 11.7281C18.0512 11.7281 18.0768 11.6641 18.0352 11.6641Z" fill="#7B4E19"/>
<path opacity="0.4" d="M17.7215 12.2691C17.7055 12.2275 17.6319 12.2691 17.6415 12.3139C17.6428 12.3236 17.6473 12.3326 17.6542 12.3396C17.6611 12.3465 17.6702 12.351 17.6799 12.3523C17.7215 12.3555 17.7599 12.2819 17.7215 12.2691Z" fill="#7B4E19"/>
<path opacity="0.4" d="M19.6256 15.6004C19.6248 15.595 19.6221 15.5901 19.618 15.5866C19.6138 15.583 19.6086 15.5811 19.6032 15.5812C19.5712 15.5588 19.536 15.5588 19.5456 15.6388C19.5456 15.6388 19.5456 15.6388 19.568 15.6388C19.648 15.6804 19.648 15.6324 19.6256 15.6004Z" fill="#7B4E19"/>
<path opacity="0.4" d="M19.1265 15.5713C19.0721 15.5713 19.0177 15.6801 19.0881 15.6801C19.1585 15.6801 19.2001 15.5713 19.1265 15.5713Z" fill="#7B4E19"/>
<path opacity="0.4" d="M20.8449 13.5234C20.8033 13.5234 20.7649 13.6002 20.8161 13.6002C20.8673 13.6002 20.8929 13.5234 20.8449 13.5234Z" fill="#7B4E19"/>
<path opacity="0.4" d="M21.3761 13.0977C21.3217 13.0977 21.2737 13.2001 21.3377 13.2001C21.4017 13.2001 21.4401 13.0977 21.3761 13.0977Z" fill="#7B4E19"/>
<path opacity="0.4" d="M21.216 14.4287C21.1712 14.4287 21.1296 14.5151 21.184 14.5151C21.2384 14.5151 21.2704 14.4287 21.216 14.4287Z" fill="#7B4E19"/>
<path opacity="0.4" d="M21.4176 18.4386C21.3696 18.4386 21.3248 18.5186 21.3696 18.5346C21.4144 18.5506 21.472 18.5346 21.4624 18.4802C21.4624 18.4745 21.4612 18.4688 21.4589 18.4635C21.4566 18.4582 21.4533 18.4535 21.4491 18.4496C21.4448 18.4457 21.4399 18.4427 21.4345 18.4408C21.429 18.4389 21.4233 18.4382 21.4176 18.4386Z" fill="#7B4E19"/>
<path opacity="0.4" d="M20.8224 18.5598C20.8032 18.5438 20.7744 18.5598 20.7584 18.5598C20.7584 18.5758 20.7296 18.6078 20.7584 18.6238C20.7872 18.6398 20.8064 18.6238 20.8256 18.6238C20.8324 18.6144 20.8358 18.6029 20.8353 18.5913C20.8347 18.5796 20.8301 18.5686 20.8224 18.5598Z" fill="#7B4E19"/>
<path opacity="0.4" d="M22.8416 18.5596C22.7936 18.5596 22.7456 18.6556 22.8064 18.6556C22.8672 18.6556 22.8992 18.5596 22.8416 18.5596Z" fill="#7B4E19"/>
<path opacity="0.4" d="M23.1616 19.334C23.136 19.334 23.1136 19.3788 23.1424 19.3788C23.1712 19.3788 23.1904 19.334 23.1616 19.334Z" fill="#7B4E19"/>
<path opacity="0.4" d="M25.0879 18.0605C25.0463 18.0605 25.0015 18.1469 25.0559 18.1469C25.1103 18.1469 25.1423 18.0605 25.0879 18.0605Z" fill="#7B4E19"/>
<path opacity="0.4" d="M24.5025 18.5596C24.4673 18.5596 24.4321 18.63 24.4769 18.63C24.5217 18.63 24.5473 18.5596 24.5025 18.5596Z" fill="#7B4E19"/>
<path opacity="0.4" d="M26.1313 17.126C26.0801 17.126 26.0289 17.2284 26.0929 17.2284C26.1569 17.2284 26.1953 17.126 26.1313 17.126Z" fill="#7B4E19"/>
<path opacity="0.4" d="M26.7073 16.4701C26.7073 16.4989 26.7425 16.4701 26.7425 16.4701C26.7425 16.4349 26.7073 16.4477 26.7073 16.4701Z" fill="#7B4E19"/>
<path opacity="0.4" d="M26.5791 18.8795C26.5791 18.9083 26.6335 18.8795 26.6367 18.8603C26.6591 18.7835 26.5599 18.8123 26.5791 18.8795Z" fill="#7B4E19"/>
<path opacity="0.4" d="M27.0285 18.5342C27.0285 18.5342 27.0033 18.5594 27.0285 18.5594C27.0537 18.5594 27.0465 18.5342 27.0285 18.5342Z" fill="#7B4E19"/>
<path opacity="0.4" d="M25.7888 19.5615C25.7376 19.5615 25.6864 19.6639 25.7536 19.6639C25.8208 19.6639 25.8528 19.5615 25.7888 19.5615Z" fill="#7B4E19"/>
<path opacity="0.4" d="M9.86237 14.918C9.86237 14.918 9.83037 14.918 9.82397 14.918C9.82397 14.9404 9.82397 14.9724 9.84957 14.966C9.87517 14.9596 9.88477 14.9404 9.86237 14.918Z" fill="#7B4E19"/>
<path opacity="0.4" d="M10.0415 13.8203C9.99994 13.8203 9.95514 13.9067 10.0127 13.9067C10.0703 13.9067 10.0959 13.8203 10.0415 13.8203Z" fill="#7B4E19"/>
<path opacity="0.4" d="M7.74722 15.616C7.74722 15.584 7.69282 15.616 7.68322 15.6384C7.67362 15.6608 7.68322 15.6672 7.68322 15.6736C7.68322 15.68 7.71202 15.6736 7.72482 15.6736C7.73246 15.6766 7.74097 15.6764 7.74847 15.6731C7.75597 15.6698 7.76185 15.6637 7.76482 15.656C7.76779 15.6484 7.76761 15.6399 7.76431 15.6324C7.76101 15.6249 7.75486 15.619 7.74722 15.616Z" fill="#7B4E19"/>
<path opacity="0.4" d="M5.46563 16.8965C5.42083 16.8965 5.37923 16.9861 5.43683 16.9861C5.49443 16.9861 5.52003 16.8965 5.46563 16.8965Z" fill="#7B4E19"/>
<path opacity="0.4" d="M5.20642 16.4639C5.14562 16.4639 5.08802 16.5823 5.16482 16.5823C5.24162 16.5823 5.28002 16.4639 5.20642 16.4639Z" fill="#7B4E19"/>
<path d="M16.272 12.2908C15.952 12.0124 15.6896 11.062 15.632 8.80925C15.6566 7.21413 16.0979 5.65317 16.912 4.28125C15.7417 5.96058 15.2167 8.00587 15.4336 10.0412C15.5194 10.878 15.6584 11.7085 15.8496 12.5276C15.9904 12.9916 16.0832 12.8988 16.5696 13.4332C16.7333 13.5991 16.8446 13.8094 16.8896 14.038C17.0111 13.934 17.1121 13.8081 17.1872 13.6668C16.9782 13.1511 16.6668 12.683 16.272 12.2908Z" fill="#8E785A"/>
<path d="M15.8751 12.525C15.6839 11.7058 15.5449 10.8754 15.4591 10.0386C15.2422 8.00319 15.7672 5.95791 16.9375 4.27858C17.1049 3.97814 17.2942 3.69043 17.5039 3.41778C17.7567 3.09778 16.9919 2.72018 16.4351 3.04338C15.8783 3.36658 14.8767 4.53138 13.9007 7.89778C12.9407 12.3362 15.0143 14.685 15.0143 14.685C15.4495 14.6466 16.3807 14.4994 16.9343 14.045C16.8893 13.8163 16.778 13.606 16.6143 13.4402C16.1087 12.8962 16.0159 12.989 15.8751 12.525Z" fill="#B6A68A"/>
<g style="mix-blend-mode:multiply">
<path d="M15.648 8.46387C14.9446 8.96389 14.2744 9.50903 13.6416 10.0959C13.6251 11.0752 13.78 12.0499 14.0992 12.9759C14.2892 12.2762 14.5907 11.6117 14.992 11.0079C15.1909 10.7153 15.435 10.456 15.7152 10.2399C15.68 9.83667 15.6544 9.36627 15.6448 8.81907C15.6416 8.69427 15.6448 8.57907 15.648 8.46387Z" fill="#9E8D71"/>
</g>
<path d="M11.9968 13.6643C11.8112 13.2931 11.696 12.6659 12.0672 11.6643C12.2976 11.0499 12.4448 10.7971 12.56 10.5059C11.6256 11.8915 11.28 13.3155 11.5104 14.5219C11.602 14.6301 11.714 14.7192 11.84 14.7843C11.9712 14.4451 12.1216 13.9075 11.9968 13.6643Z" fill="#A78D6A"/>
<path d="M22.56 5.09082C22.416 4.74522 22.3072 4.79322 21.7984 4.91482C21.2896 5.03642 16.8992 6.02202 14.08 8.78362C13.5125 9.29615 13.0077 9.87403 12.576 10.5052C12.4608 10.7964 12.3136 11.0492 12.0832 11.6636C11.712 12.6652 11.8272 13.2924 12.0128 13.6636C12.1376 13.9068 11.9872 14.4444 11.8688 14.7836C12.6852 15.163 13.557 15.4093 14.4512 15.5132C14.3694 15.2493 14.1972 15.0227 13.9648 14.8732C13.4752 14.5724 13.664 14.5724 13.7088 14.2684C13.7536 13.9644 13.5456 13.8044 13.36 13.27C13.1744 12.7356 13.4752 12.4124 13.5936 12.1084C13.6528 11.9259 13.764 11.7646 13.9136 11.6444C14.032 11.5292 14.032 11.4364 14.288 10.95C14.544 10.4636 15.248 9.78842 15.9584 9.13562C16.6688 8.48282 18.0096 7.48122 18.9056 7.49402C19.9354 6.94949 21.0052 6.48414 22.1056 6.10202C22.72 5.91002 22.7008 5.49402 22.56 5.09082Z" fill="#D6C3A2"/>
<path d="M15.9455 9.13315C15.2255 9.77315 14.5279 10.4579 14.2751 10.9475C14.0223 11.4371 14.0191 11.5267 13.9007 11.6419C13.7512 11.7622 13.6399 11.9234 13.5807 12.1059C13.4623 12.4259 13.1615 12.7459 13.3471 13.2675C13.5327 13.7891 13.7439 13.9651 13.6959 14.2659C13.6479 14.5667 13.4623 14.5859 13.9519 14.8707C14.1843 15.0202 14.3565 15.2468 14.4383 15.5107C14.9315 15.6117 15.4411 15.6008 15.9295 15.4787C15.9295 15.4787 14.1119 15.1587 14.0095 13.3731C13.9647 12.4803 14.6175 10.3683 17.6991 8.20195C18.1055 7.93635 18.5055 7.69955 18.8959 7.48835C17.9967 7.47875 16.6399 8.52195 15.9455 9.13315Z" fill="#A78D6A"/>
<path d="M13.5169 10.7715C13.4198 10.8142 13.3257 10.8633 13.2353 10.9187C13.2353 10.8291 13.2353 10.7427 13.2353 10.6563L13.4785 10.5155C13.4785 10.5155 13.5041 10.4707 13.4785 10.4803C13.3953 10.5219 13.3121 10.5635 13.2321 10.6115C13.2321 10.4931 13.2321 10.3779 13.2513 10.2627C13.2513 10.2627 13.2225 10.2627 13.2193 10.2627C13.2193 10.3811 13.2001 10.4995 13.1937 10.6179L13.0753 10.6979C13.0753 10.5731 13.1009 10.4483 13.1169 10.3235C13.1169 10.3011 13.0913 10.3235 13.0881 10.3235C13.0689 10.4515 13.0465 10.5859 13.0305 10.7235C12.9721 10.768 12.9165 10.8161 12.8641 10.8675C12.8641 10.8675 12.8641 10.8963 12.8641 10.8835C12.9112 10.8393 12.9614 10.7987 13.0145 10.7619C13.0145 10.8547 12.9953 10.9475 12.9921 11.0435L12.8257 11.1715C12.8257 11.1715 12.8257 11.2163 12.8257 11.1971C12.8257 11.1779 12.9281 11.1203 12.9793 11.0851C12.9804 11.2316 12.9976 11.3775 13.0305 11.5203C13.0305 11.5427 13.0689 11.5203 13.0689 11.4979C13.0593 11.3615 13.0593 11.2247 13.0689 11.0883L13.2033 11.0051C13.2033 11.1043 13.2033 11.2035 13.2033 11.2995C13.2033 11.3219 13.2385 11.2995 13.2385 11.2771C13.2385 11.1779 13.2385 11.0787 13.2385 10.9795L13.5169 10.8195C13.5169 10.8195 13.5393 10.7619 13.5169 10.7715ZM13.0593 11.0307C13.0593 10.9379 13.0593 10.8451 13.0593 10.7555C13.0978 10.7269 13.1385 10.7012 13.1809 10.6787C13.1809 10.7651 13.1809 10.8547 13.1809 10.9411L13.0593 11.0307Z" fill="#A78D6A"/>
<g style="mix-blend-mode:multiply">
<path d="M13.3247 14.8543C12.9727 14.8543 12.5919 14.6079 12.2591 14.4895C12.0091 14.3791 11.7436 14.3079 11.4719 14.2783C11.4719 14.3615 11.4943 14.4415 11.5103 14.5215C11.6019 14.6297 11.7139 14.7189 11.8399 14.7839C12.6563 15.1633 13.5281 15.4096 14.4223 15.5135C14.9155 15.6145 15.4251 15.6036 15.9135 15.4815C15.5278 15.3988 15.1643 15.234 14.8479 14.9983C14.3551 15.1007 13.9327 14.8639 13.3247 14.8543Z" fill="#D6C3A2"/>
</g>
<path d="M16.5281 8.14075C16.5044 8.15111 16.4818 8.16398 16.4609 8.17915C16.4609 8.10235 16.4609 8.02555 16.4609 7.94875L16.5249 7.91995C16.5249 7.91995 16.5569 7.86875 16.5249 7.87835L16.4577 7.91355L16.4769 7.76635C16.4769 7.73755 16.4449 7.76635 16.4417 7.76635C16.4385 7.76635 16.4257 7.86875 16.4193 7.91995L16.3617 7.95195C16.3617 7.87515 16.3617 7.80155 16.3617 7.72475C16.3617 7.70555 16.3329 7.72475 16.3329 7.74395C16.3329 7.82075 16.3329 7.89755 16.3137 7.97115L16.1889 8.04795C16.1889 8.04795 16.1633 8.09275 16.1889 8.07995L16.3105 8.00955C16.3105 8.09915 16.3105 8.18875 16.2913 8.27835C16.2711 8.29576 16.2469 8.30786 16.2209 8.31355C16.2209 8.31355 16.1857 8.35515 16.2209 8.34875C16.2562 8.34992 16.2909 8.33983 16.3201 8.31995C16.3137 8.41691 16.3137 8.51419 16.3201 8.61115C16.3201 8.63675 16.3585 8.61115 16.3585 8.58555C16.3585 8.48635 16.3585 8.38715 16.3585 8.28795L16.4225 8.23995C16.4193 8.29003 16.4193 8.34027 16.4225 8.39035C16.4225 8.41275 16.4577 8.39035 16.4577 8.36795C16.4577 8.34555 16.4577 8.26235 16.4577 8.21115L16.5217 8.16955C16.5441 8.16315 16.5537 8.12475 16.5281 8.14075ZM16.3969 8.22395C16.3826 8.23266 16.3696 8.24344 16.3585 8.25595C16.3585 8.16955 16.3585 8.08635 16.3585 7.99995L16.4129 7.97115C16.4081 8.05001 16.4081 8.12909 16.4129 8.20795L16.3969 8.22395Z" fill="#A78D6A"/>
<g style="mix-blend-mode:screen">
<path d="M16.0001 7.47839C15.4817 7.77878 14.9941 8.12926 14.5441 8.52479C14.3361 8.70719 14.1249 8.90239 13.9297 9.09759C13.7137 9.34185 13.4851 9.5747 13.2449 9.79519C13.2449 9.81119 13.2449 9.79519 13.2449 9.79519C13.6737 9.46657 14.0799 9.1095 14.4609 8.72639C14.9513 8.32001 15.4653 7.94282 16.0001 7.59679C16.0609 7.56159 16.1057 7.42399 16.0001 7.47839Z" fill="#D6C3A2"/>
</g>
<g style="mix-blend-mode:screen">
<path d="M21.7951 4.93111C21.372 5.02852 20.9544 5.14815 20.5439 5.28951C20.0874 5.43702 19.6388 5.60791 19.1999 5.80151C18.7627 5.97038 18.3354 6.16376 17.9199 6.38071C17.7151 6.48951 17.5039 6.57911 17.3055 6.70071C17.2127 6.76151 17.1167 6.81591 17.0207 6.87991C16.9306 6.95854 16.8292 7.02326 16.7199 7.07191C16.7007 7.07191 16.6591 7.13911 16.7007 7.13911C16.8138 7.11969 16.9222 7.07955 17.0207 7.02071C17.2575 6.89911 17.4975 6.78391 17.7375 6.66871C18.1713 6.44843 18.6168 6.25188 19.0719 6.07991C19.5167 5.91991 19.9391 5.72791 20.3967 5.60311C20.8637 5.52157 21.3164 5.37283 21.7407 5.16151C21.7887 5.14231 21.9455 4.90231 21.7951 4.93111Z" fill="#D6C3A2"/>
</g>
<g style="mix-blend-mode:multiply">
<path d="M16.4609 13.8786C16.2023 14.0453 15.9109 14.1545 15.6065 14.1986C15.3271 14.2019 15.0552 14.2889 14.8257 14.4482C14.9409 14.6146 15.0145 14.701 15.0145 14.701C15.4497 14.6626 16.3809 14.5154 16.9345 14.061C17.056 13.9569 17.157 13.831 17.2321 13.6898C17.1745 13.565 17.1137 13.453 17.0593 13.3506C16.891 13.559 16.6887 13.7376 16.4609 13.8786Z" fill="#9E8D71"/>
</g>
<path d="M20.6145 22.0798C20.9207 21.7529 21.3211 21.5292 21.7601 21.4398C22.1697 21.3662 22.4833 21.379 22.6881 21.0302C22.7617 20.9054 22.8481 20.7518 22.9345 20.611C23.0252 20.153 23.0808 19.6887 23.1009 19.2222C23.1937 17.875 23.3793 17.4558 22.7809 16.9214C22.1079 16.4103 21.4814 15.8406 20.9089 15.219C20.5889 14.7998 20.1825 13.619 19.9969 13.3694C19.8788 13.2204 19.7114 13.1185 19.5247 13.0821C19.3381 13.0457 19.1447 13.0773 18.9793 13.171C18.5197 13.3324 18.0359 13.4136 17.5489 13.411C17.2855 13.4242 17.0352 13.5295 16.8417 13.7086C16.7297 13.8366 16.6305 14.0286 16.4033 14.0766C15.9962 14.2119 15.5803 14.3188 15.1585 14.3966C14.7073 14.451 14.6785 15.4142 14.6785 15.4142C16.5633 15.4686 16.9985 18.7262 17.9041 19.9582C18.5057 20.7774 18.8641 22.2654 19.0337 23.1582C19.229 22.9899 19.4535 22.8587 19.6961 22.771C20.0698 22.6477 20.3925 22.4048 20.6145 22.0798Z" fill="#6D2213"/>
<g style="mix-blend-mode:multiply" opacity="0.5">
<path d="M19.8209 21.5076C19.7185 21.002 19.3441 20.5956 19.0337 20.202C18.4097 19.418 17.6129 18.7556 17.3857 17.7348C17.2129 16.9572 17.3281 15.8692 16.4769 15.4724C15.9233 15.2164 15.2929 15.2356 14.7169 15.0596C14.6935 15.1843 14.6785 15.3104 14.6721 15.4372C16.5569 15.4916 16.9921 18.7492 17.8977 19.9812C18.4993 20.8004 18.8577 22.2884 19.0273 23.1812C19.2227 23.0128 19.4472 22.8816 19.6897 22.794H19.7185C19.824 22.3738 19.8586 21.9391 19.8209 21.5076Z" fill="#601D0B"/>
</g>
<path d="M22.6879 21.0467C22.4831 21.3955 22.1695 21.3667 21.7599 21.4563C21.3209 21.5457 20.9206 21.7693 20.6143 22.0963C20.3939 22.4296 20.0683 22.6796 19.6895 22.8067C19.4469 22.8943 19.2224 23.0255 19.0271 23.1939C19.1135 23.6515 19.1519 23.9555 19.1519 23.9555C19.3543 23.8335 19.5688 23.7327 19.7919 23.6547C20.0703 23.5683 20.0543 23.5939 20.1791 23.4371C20.3032 23.2226 20.4514 23.0229 20.6207 22.8419C20.9274 22.6502 21.2591 22.5016 21.6063 22.4003C21.8957 22.3115 22.1607 22.1571 22.3807 21.9491C22.652 21.5478 22.8403 21.0963 22.9343 20.6211C22.8479 20.7683 22.7615 20.9219 22.6879 21.0467Z" fill="#4C1206"/>
<g style="mix-blend-mode:multiply" opacity="0.5">
<path d="M19.8848 22.7201C19.8456 23.0226 19.8243 23.3271 19.8208 23.6321C20.0576 23.5617 20.048 23.5745 20.1664 23.4273C20.2336 23.3441 20.2976 23.2257 20.3744 23.1073C20.3744 22.8481 20.3744 22.5633 20.3744 22.3457C20.2406 22.5048 20.0734 22.6326 19.8848 22.7201Z" fill="#4C1206"/>
<path d="M21.7601 21.456C21.6621 21.4734 21.5658 21.4991 21.4721 21.5328C21.4721 21.7664 21.4369 22.1184 21.3889 22.4928L21.6065 22.416C21.771 22.3563 21.9296 22.2813 22.0801 22.192C22.0801 21.9104 22.1025 21.616 22.1153 21.3984L21.7601 21.456Z" fill="#4C1206"/>
</g>
<path d="M12.4064 23.45C12.9408 23.5492 12.9408 23.6228 13.0272 23.8628C13.1136 24.1028 13.104 24.2564 13.2576 24.1572C13.3568 24.106 13.4112 24.1796 13.6384 24.3236C13.927 24.4605 14.244 24.5269 14.5633 24.5174C14.8826 24.508 15.1951 24.4229 15.4752 24.2692C16.2592 23.8308 16.8832 23.482 17.3184 23.6996C17.296 23.3604 17.3952 23.3188 17.6384 23.2868C17.8816 23.2548 18.3904 22.9348 18.3712 22.762C18.3842 22.5238 18.4486 22.2913 18.56 22.0804C18.6597 21.7826 18.7252 21.4745 18.7552 21.162C18.8096 20.8004 18.528 20.5732 18.3744 20.2756C18.1384 19.8372 17.8688 19.4178 17.568 19.0212C17.2128 18.5604 16.9792 18.2756 16.96 17.6804C16.9376 17.29 16.96 17.0404 16.9312 16.7588C16.9071 16.3717 16.7978 15.9947 16.6112 15.6548C16.3328 15.2804 15.9904 15.4532 15.5712 15.3892C15.152 15.3252 14.352 15.0276 13.9712 15.098C13.5904 15.1684 12.7328 14.9476 11.8208 14.4228C11.8208 14.4228 11.3408 14.2308 11.2704 14.5668C11.2208 14.8819 11.0781 15.1749 10.8608 15.4084C10.576 15.7668 10.6432 15.7924 10.8096 16.2532C10.8266 16.4051 10.8113 16.5588 10.7648 16.7044C10.6102 17.0792 10.4295 17.4428 10.224 17.7924C10.0999 17.9534 10.0421 18.1557 10.0623 18.358C10.0825 18.5602 10.1793 18.7471 10.3328 18.8804C10.6047 19.1003 10.8079 19.3934 10.9184 19.7252C11.1257 20.4613 11.2881 21.2094 11.4048 21.9652C11.4272 22.1092 11.4464 22.2372 11.4656 22.3524C11.5392 22.5476 11.84 23.2964 12.4064 23.45Z" fill="#944620"/>
<path d="M19.52 21.3661C19.2 20.9181 18.7456 20.0669 18.2048 19.5389C17.6639 19.0109 17.4175 18.5021 17.1231 17.5997C17.0349 17.3231 16.9654 17.0408 16.9152 16.7549C16.9344 17.0461 16.9152 17.2861 16.944 17.6765C16.9792 18.2717 17.2128 18.5501 17.5616 19.0013C17.8624 19.3979 18.132 19.8173 18.368 20.2557C18.5216 20.5533 18.8032 20.7805 18.7488 21.1421C18.7223 21.4609 18.6589 21.7755 18.56 22.0797C18.4475 22.2957 18.3841 22.5339 18.3744 22.7773C18.3935 22.9501 17.8816 23.2669 17.6416 23.3021C17.4016 23.3373 17.3024 23.3757 17.3216 23.7149C16.8864 23.4973 16.2624 23.8461 15.4783 24.2845C15.1983 24.4382 14.8858 24.5233 14.5665 24.5327C14.2472 24.5422 13.9302 24.4758 13.6416 24.3389C13.4144 24.1949 13.3599 24.1213 13.2607 24.1725C13.1071 24.2717 13.12 24.1213 13.0304 23.8781C12.9408 23.6349 12.9439 23.5581 12.4095 23.4653C11.8527 23.3117 11.5424 22.5629 11.4688 22.3581C11.5037 22.8663 11.7011 23.3499 12.0319 23.7373C12.5439 24.3773 12.5888 24.2461 12.8992 24.8829C13.2096 25.5197 13.0848 25.6573 13.8911 25.6861C14.6976 25.7149 15.344 25.5645 15.888 25.6093C16.432 25.6541 17.0496 25.8429 17.5456 25.5005C18.0416 25.1581 18.288 24.8349 18.7359 24.6333C19.184 24.4317 19.376 24.3677 19.3088 24.0925C19.2159 23.6104 19.2345 23.1135 19.3632 22.6397C19.5199 22.0989 19.84 21.8173 19.52 21.3661Z" fill="#6F270E"/>
<g style="mix-blend-mode:multiply" opacity="0.5">
<path d="M16.7968 24.1568C16.7942 24.3225 16.8292 24.4866 16.8992 24.6368C17.0144 24.8768 17.1136 25.1552 17.1776 25.104C17.2416 25.0528 17.2032 24.8641 17.0496 24.4961C16.896 24.1281 16.8096 23.9168 16.7968 24.1568Z" fill="#6F2910"/>
</g>
<g style="mix-blend-mode:multiply" opacity="0.5">
<path d="M13.1457 24.1761C13.1009 24.1377 13.0849 24.0193 13.0273 23.8561C12.9697 23.6929 12.9473 23.5937 12.7361 23.5361C12.8161 23.9649 12.9505 24.6753 13.0561 25.2353C13.1681 25.4881 13.2321 25.6001 13.5329 25.6513L13.1521 24.2145C13.1474 24.2023 13.1453 24.1892 13.1457 24.1761Z" fill="#6F2910"/>
<path d="M15.9265 25.4687C16.0129 25.5071 15.7121 24.6527 15.5585 24.2207L15.4753 24.2687H15.4529C15.5645 24.6855 15.7234 25.0881 15.9265 25.4687Z" fill="#6F2910"/>
<path d="M14.0801 24.8003C14.1071 25.0984 14.1716 25.3919 14.2721 25.6739H14.4001C14.2689 25.2803 14.1217 24.7683 14.0801 24.8003Z" fill="#6F2910"/>
<path d="M16.2304 24.9605C16.3104 24.9797 16.1216 24.3461 16.016 23.9717L15.8528 24.0549C15.9456 24.3589 16.144 24.9605 16.2304 24.9605Z" fill="#6F2910"/>
<path d="M19.3377 22.6944C19.1795 22.2878 19.0574 21.8681 18.9729 21.44C18.9242 21.2767 18.8496 21.1222 18.7521 20.9824C18.76 21.0365 18.76 21.0915 18.7521 21.1456C18.7233 21.3408 18.7041 21.5008 18.6721 21.6544L19.2705 23.0656C19.2849 22.9406 19.3073 22.8166 19.3377 22.6944Z" fill="#6F2910"/>
<path d="M14.5985 25.014C14.5569 25.0492 14.7105 25.4236 14.8065 25.654H14.9249C14.8385 25.4236 14.6497 24.9756 14.5985 25.014Z" fill="#6F2910"/>
<path d="M17.6352 23.2865C17.4176 23.3153 17.3152 23.3537 17.3152 23.6065L17.8304 25.2801C18.0429 25.0936 18.265 24.9184 18.496 24.7553L18.0096 23.1553C17.893 23.2197 17.7665 23.264 17.6352 23.2865Z" fill="#6F2910"/>
</g>
<path d="M14.0384 16.979C13.8689 16.8009 13.6425 16.6876 13.3984 16.659C13.1392 16.6334 12.5248 16.6878 12.7744 16.2238C12.8731 16.0582 12.9322 15.872 12.9472 15.6798C12.9472 15.5422 12.8672 15.5774 12.7872 15.6414C12.7072 15.7054 12.5504 15.811 12.5024 15.9614C12.4867 16.0675 12.4867 16.1753 12.5024 16.2814C12.5024 16.3102 12.5472 16.4542 12.4576 16.435C12.3944 16.4065 12.3352 16.37 12.2816 16.3262C12.1952 16.2718 12.0928 16.259 12.0064 16.2046C11.905 16.1513 11.7975 16.1105 11.6864 16.083C11.5616 16.0382 11.5104 15.9902 11.3664 16.019C11.2533 16.042 11.1451 16.0842 11.0464 16.1438C10.9952 16.1694 10.9664 16.2814 11.0464 16.2398L11.1072 16.211C11.1989 16.2442 11.2877 16.2849 11.3728 16.3326C11.4869 16.367 11.6055 16.3843 11.7248 16.3838C11.9517 16.409 12.1668 16.4977 12.3456 16.6398C12.4352 16.707 12.1664 17.2126 12.1376 17.3246C12.1183 17.5247 12.1644 17.7256 12.2688 17.8974C12.2912 17.9454 12.3712 17.8558 12.3616 17.8174C12.352 17.779 12.3296 17.6734 12.3104 17.603C12.3145 17.5433 12.3253 17.4843 12.3424 17.427C12.3752 17.318 12.4147 17.2111 12.4608 17.107C12.4608 17.0782 12.4608 17.0846 12.4288 17.107C12.471 17.0082 12.519 16.912 12.5728 16.819C12.608 16.7614 12.6496 16.6622 12.7424 16.707C12.8187 16.7467 12.9028 16.7697 12.9888 16.7742C13.1936 16.7902 13.3088 16.7422 13.4976 16.883C13.6287 16.9849 13.7805 17.0569 13.9424 17.0942C14 17.107 14.08 17.0206 14.0384 16.979Z" fill="#6C260C"/>
<path d="M15.4177 20.2238C15.3371 20.2269 15.2568 20.2365 15.1777 20.2526C15.065 20.2547 14.954 20.2247 14.8577 20.1662C14.678 20.0746 14.4862 20.0089 14.2881 19.971C14.1025 19.9422 13.8977 19.987 13.7825 19.8046C13.7281 19.7214 13.8273 19.5134 13.8465 19.4046C13.8593 19.3272 13.8593 19.2483 13.8465 19.171C13.8273 19.059 13.7153 18.851 13.5745 18.9822C13.5099 19.0547 13.4613 19.1401 13.4321 19.2328C13.4029 19.3255 13.3936 19.4233 13.4049 19.5198C13.3715 19.4812 13.33 19.4506 13.2833 19.4302C13.1444 19.4014 13.0018 19.3949 12.8609 19.411C12.5036 19.4733 12.1358 19.4123 11.8177 19.2382C11.6274 19.0937 11.42 18.9733 11.2001 18.8798C11.0056 18.7804 10.7957 18.7144 10.5793 18.6846C10.5537 18.6846 10.5249 18.723 10.5249 18.7454C10.5249 18.7678 10.5441 18.7678 10.5601 18.7454C10.6316 18.8403 10.7207 18.9207 10.8225 18.9822C10.9313 19.0686 11.0209 19.1742 11.1425 19.2542C11.2641 19.3342 11.3633 19.2542 11.4625 19.2958C11.6033 19.3406 11.7153 19.4142 11.8593 19.4494C12.012 19.459 12.1582 19.5148 12.2785 19.6094C12.355 19.6849 12.4424 19.7485 12.5377 19.7982C12.7873 19.9039 13.0574 19.952 13.3281 19.939C13.3025 20.0126 13.2705 20.083 13.2513 20.1598C13.2033 20.339 13.1617 20.5182 13.1297 20.7006C13.0916 20.8328 13.0846 20.972 13.109 21.1074C13.1334 21.2428 13.1887 21.3708 13.2705 21.4814C13.3089 21.5294 13.3793 21.4238 13.3889 21.395C13.4064 21.303 13.4064 21.2085 13.3889 21.1166C13.3889 20.9726 13.3633 20.8382 13.3633 20.6942C13.3633 20.5502 13.4689 20.419 13.5137 20.259C13.5361 20.179 13.5425 20.0894 13.5617 20.003C13.7315 20.0186 13.8934 20.0818 14.0289 20.1854C14.1441 20.2846 14.2273 20.419 14.3937 20.4318C14.5601 20.4446 14.6625 20.2814 14.8577 20.3358C15.0184 20.4205 15.1866 20.4901 15.3601 20.5438C15.4817 20.5438 15.7889 20.6334 15.8497 20.4702C15.9105 20.307 15.4945 20.2206 15.4177 20.2238ZM13.2225 20.8638C13.2242 20.925 13.2306 20.986 13.2417 21.0462C13.2417 21.0686 13.2417 21.0942 13.2417 21.123C13.2243 21.0432 13.2178 20.9613 13.2225 20.8798V20.8638Z" fill="#6C260C"/>
<path d="M16.4831 17.6379C16.4543 17.5035 16.2463 17.6379 16.2719 17.4171C16.2719 17.2731 16.2303 17.2123 16.3103 17.0427C16.3391 16.9787 16.3295 16.8027 16.2239 16.8027C16.2126 16.8042 16.2023 16.8099 16.1951 16.8187C15.9743 16.9723 16.1087 17.2507 16.0031 17.4587C15.9007 17.3787 15.7215 17.4171 15.5999 17.3755C15.4783 17.3339 15.3375 17.1995 15.1999 17.2507H15.1775C15.1775 17.3851 15.2063 17.4267 15.3311 17.4875C15.3887 17.5163 15.9999 17.7275 15.9071 17.8587C15.8731 17.8985 15.8521 17.9478 15.847 17.9998C15.8418 18.0519 15.8528 18.1043 15.8783 18.1499C15.9167 18.2171 15.9743 18.2683 16.0095 18.3355C16.0447 18.4027 16.0543 18.4667 16.1215 18.5179C16.1215 18.5179 16.1439 18.5179 16.1535 18.5179L16.1727 18.5627C16.1727 18.5819 16.2079 18.5627 16.2079 18.5403C16.1695 18.2875 15.9999 17.8299 16.3903 17.7915C16.4831 17.7979 16.5023 17.7115 16.4831 17.6379Z" fill="#6C260C"/>
<path d="M18.3584 21.2896C18.2432 21.2512 18.128 21.2544 18.016 21.2096C17.8707 21.1455 17.7314 21.0684 17.6 20.9792C17.4785 20.917 17.3509 20.8677 17.2192 20.832C17.056 20.768 16.8992 20.832 16.7456 20.7744C16.7168 20.7744 16.6688 20.8288 16.7008 20.8416H16.7168C16.7202 20.9913 16.7585 21.1382 16.8288 21.2704C16.8368 21.2759 16.8463 21.2789 16.856 21.2789C16.8657 21.2789 16.8752 21.2759 16.8832 21.2704C16.9984 21.232 16.9248 21.0752 17.1584 21.1392C17.5104 21.232 17.9488 21.4592 18.32 21.3344C18.3456 21.3504 18.3904 21.2992 18.3584 21.2896Z" fill="#6C260C"/>
<path d="M16.144 23.0083C15.8912 22.8451 15.728 22.7747 15.7312 22.4355C15.7405 22.1614 15.7923 21.8904 15.8848 21.6323C15.9264 21.5107 15.984 21.3123 15.904 21.1939C15.792 21.0275 15.712 21.5139 15.7088 21.5139C15.6896 21.7859 15.664 22.0547 15.6256 22.3235C15.6 22.4899 15.6064 22.6435 15.3504 22.6915C15.1796 22.7148 15.0062 22.6737 14.864 22.5763C14.544 22.3747 14.176 22.0291 13.7632 22.1955C13.6256 22.2499 13.4976 22.3331 13.3536 22.2403C13.2735 22.1725 13.2137 22.0839 13.1808 21.9843C13.1785 21.9699 13.1722 21.9564 13.1628 21.9453C13.1533 21.9342 13.141 21.9259 13.1271 21.9212C13.1133 21.9166 13.0985 21.9159 13.0842 21.9191C13.07 21.9223 13.0569 21.9294 13.0464 21.9395C12.9472 22.0227 13.0464 22.0515 12.784 22.0963C12.6128 22.0972 12.4453 22.0458 12.304 21.9491C12.1358 21.8303 11.9556 21.7295 11.7664 21.6483H11.7472C11.7152 21.6483 11.664 21.7155 11.6992 21.7251C11.6352 21.8755 11.728 22.0195 11.8592 22.1347C11.9392 22.2051 12.096 22.1091 12.1792 22.1155C12.3439 22.1386 12.496 22.2164 12.6112 22.3363C12.6488 22.3636 12.6897 22.3862 12.7328 22.4035C12.8704 22.4707 12.928 22.5219 12.9088 22.6851C12.8924 22.7925 12.9023 22.9023 12.9376 23.0051C12.9856 23.1171 13.1808 22.9507 13.2224 22.9155C13.328 22.8259 13.2704 22.6947 13.2224 22.5955C13.1744 22.4963 13.2736 22.5091 13.328 22.5347C13.433 22.5593 13.5402 22.5732 13.648 22.5763C13.8165 22.5883 13.9842 22.6097 14.1504 22.6403C14.2176 22.6403 14.2912 22.6403 14.3616 22.6755C14.432 22.7107 14.5408 22.8099 14.608 22.8899C14.6752 22.9699 14.7232 23.0211 14.8416 23.0083C14.96 22.9955 15.4336 22.7811 15.3696 23.1107C15.3408 23.2707 15.4336 23.3955 15.392 23.5683C15.392 23.6131 15.44 23.5683 15.4528 23.5683C15.52 23.4531 15.5776 23.2867 15.7504 23.3027C15.8432 23.3027 15.9296 23.3251 16.0224 23.3251C16.0717 23.3293 16.1212 23.3205 16.1661 23.2998C16.211 23.279 16.2497 23.2469 16.2784 23.2067C16.32 23.1299 16.2016 23.0403 16.144 23.0083Z" fill="#6C260C"/>
<g style="mix-blend-mode:multiply" opacity="0.5">
<path d="M12.7073 16.6404C12.3873 16.5316 12.0673 16.4036 11.7185 16.3204C11.5096 16.2443 11.2957 16.1823 11.0785 16.1348H11.0593C11.0081 16.1604 10.9793 16.2724 11.0593 16.2308L11.1201 16.202C11.2118 16.2352 11.3006 16.2759 11.3857 16.3236C11.4998 16.358 11.6185 16.3753 11.7377 16.3748C11.9646 16.4 12.1798 16.4887 12.3585 16.6308C12.4481 16.698 12.1793 17.2036 12.1505 17.3156C12.1313 17.5157 12.1773 17.7166 12.2817 17.8884C12.3041 17.9364 12.3841 17.8468 12.3745 17.8084C12.3649 17.77 12.3425 17.6644 12.3233 17.594C12.3275 17.5343 12.3382 17.4753 12.3553 17.418C12.3881 17.309 12.4277 17.2021 12.4737 17.098C12.4737 17.0692 12.4737 17.0756 12.4417 17.098C12.4839 16.9992 12.532 16.903 12.5857 16.81C12.6209 16.7524 12.6625 16.6532 12.7553 16.698C12.8317 16.7377 12.9157 16.7607 13.0017 16.7652H13.1201L12.7073 16.6404Z" fill="#6C260C"/>
</g>
<g style="mix-blend-mode:multiply" opacity="0.5">
<path d="M14.0097 17.0236C13.882 16.9578 13.743 16.9165 13.6001 16.902L13.5137 16.8828C13.6423 16.9842 13.7922 17.0553 13.9521 17.0908C13.9809 17.0908 14.0161 17.0716 14.0321 17.0396L14.0097 17.0236Z" fill="#6C260C"/>
</g>
<g style="mix-blend-mode:multiply" opacity="0.5">
<path d="M14.864 20.3299C14.5871 20.2877 14.3126 20.2311 14.0416 20.1603C13.8364 20.0875 13.6356 20.0031 13.44 19.9075C12.9568 19.7123 12.4448 19.6259 11.9584 19.4531C11.5842 19.2699 11.1983 19.1116 10.8032 18.9795L10.8384 19.0083C10.9472 19.0947 11.0368 19.2003 11.1584 19.2803C11.28 19.3603 11.3792 19.2803 11.4784 19.3219C11.6192 19.3667 11.7312 19.4403 11.8752 19.4755C12.0279 19.4851 12.1741 19.5409 12.2944 19.6355C12.3709 19.711 12.4583 19.7746 12.5536 19.8243C12.8032 19.93 13.0733 19.9781 13.344 19.9651C13.3184 20.0387 13.2864 20.1091 13.2672 20.1859C13.2192 20.3651 13.1776 20.5443 13.1456 20.7267C13.1076 20.8589 13.1005 20.9981 13.1249 21.1335C13.1493 21.2689 13.2046 21.3969 13.2864 21.5075C13.3248 21.5555 13.3952 21.4499 13.4048 21.4211C13.4223 21.3291 13.4223 21.2347 13.4048 21.1427C13.4048 20.9987 13.3792 20.8643 13.3792 20.7203C13.3792 20.5763 13.4848 20.4451 13.5296 20.2851C13.552 20.2051 13.5584 20.1155 13.5776 20.0291C13.7474 20.0447 13.9094 20.1079 14.0448 20.2115C14.16 20.3107 14.2432 20.4451 14.4096 20.4579C14.576 20.4707 14.6784 20.3075 14.8736 20.3619C15.03 20.437 15.1928 20.498 15.36 20.5443C15.4784 20.5443 15.7632 20.6243 15.84 20.4899C15.504 20.4323 15.1808 20.3875 14.864 20.3299ZM13.2224 20.8803C13.2241 20.9415 13.2305 21.0025 13.2416 21.0627C13.2416 21.0851 13.2416 21.1107 13.2416 21.1395C13.2227 21.0545 13.2162 20.9672 13.2224 20.8803Z" fill="#6C260C"/>
</g>
<g style="mix-blend-mode:multiply" opacity="0.5">
<path d="M16.2593 17.8463L15.8497 17.6799C15.632 17.6013 15.4184 17.5115 15.2097 17.4111C15.244 17.4565 15.2907 17.4909 15.3441 17.5103C15.4017 17.5391 16.0129 17.7503 15.9201 17.8815C15.8861 17.9213 15.8652 17.9705 15.86 18.0226C15.8549 18.0747 15.8658 18.1271 15.8913 18.1727C15.9297 18.2399 15.9873 18.2911 16.0225 18.3583C16.0577 18.4255 16.0673 18.4895 16.1345 18.5407C16.1345 18.5407 16.1569 18.5407 16.1665 18.5407L16.1857 18.5855C16.1857 18.6047 16.2209 18.5855 16.2209 18.5631C16.1761 18.3359 16.0449 17.9679 16.2593 17.8463Z" fill="#6C260C"/>
</g>
<g style="mix-blend-mode:multiply" opacity="0.5">
<path d="M17.6385 21.2932C17.4561 21.2292 17.2673 21.1908 17.0817 21.13C16.9665 21.0916 16.8545 21.0116 16.7393 20.9668C16.7477 21.0796 16.7816 21.189 16.8385 21.2868C16.8465 21.2923 16.8559 21.2952 16.8657 21.2952C16.8754 21.2952 16.8849 21.2923 16.8929 21.2868C17.0081 21.2484 16.9345 21.0916 17.1681 21.1556C17.4017 21.2196 17.6129 21.3124 17.8465 21.3604L17.6385 21.2932Z" fill="#6C260C"/>
</g>
<path d="M11.7024 21.9395C11.74 22.0187 11.7946 22.0886 11.8624 22.1443C11.9424 22.2147 12.0992 22.1187 12.1824 22.1251H12.2176C12.0541 22.0423 11.8811 21.98 11.7024 21.9395Z" fill="#6C260C"/>
<g style="mix-blend-mode:multiply" opacity="0.5">
<path d="M15.5424 23.0078L15.3376 22.9854C15.3538 23.0052 15.3646 23.0288 15.3691 23.054C15.3736 23.0792 15.3716 23.1052 15.3632 23.1294C15.3344 23.2894 15.4272 23.4142 15.3856 23.587C15.3856 23.6318 15.4336 23.587 15.4464 23.587C15.5136 23.4718 15.5712 23.3054 15.744 23.3214C15.8368 23.3214 15.9232 23.3438 16.016 23.3438C16.0653 23.3479 16.1148 23.3392 16.1597 23.3185C16.2046 23.2977 16.2433 23.2656 16.272 23.2254C16.2822 23.2108 16.2877 23.1935 16.2877 23.1758C16.2877 23.158 16.2822 23.1407 16.272 23.1261L15.5424 23.0078Z" fill="#6C260C"/>
</g>
<g style="mix-blend-mode:multiply" opacity="0.5">
<path d="M14.9377 22.915C14.7393 22.8606 14.5729 22.7294 14.3809 22.659C13.8977 22.4766 13.3793 22.499 12.8833 22.3582C12.7457 22.323 12.6049 22.2814 12.4705 22.2334L12.6113 22.3454C12.6489 22.3727 12.6897 22.3953 12.7329 22.4126C12.8705 22.4798 12.9281 22.531 12.9089 22.6942C12.8924 22.8016 12.9023 22.9114 12.9377 23.0142C12.9857 23.1262 13.1809 22.9598 13.2225 22.9246C13.3281 22.835 13.2705 22.7038 13.2225 22.6046C13.1745 22.5054 13.2737 22.5182 13.3281 22.5438C13.4331 22.5684 13.5403 22.5824 13.6481 22.5854C13.8166 22.5975 13.9843 22.6188 14.1505 22.6494C14.2177 22.6494 14.2913 22.6494 14.3617 22.6846C14.4321 22.7198 14.5409 22.819 14.6081 22.899C14.6753 22.979 14.7233 23.0302 14.8417 23.0174C14.8993 23.0174 15.0241 22.9662 15.1361 22.947C15.0692 22.9412 15.0029 22.9305 14.9377 22.915Z" fill="#6C260C"/>
</g>
<g style="mix-blend-mode:multiply" opacity="0.5">
<path d="M22.0992 19.7952C21.8838 19.6846 21.6347 19.6595 21.4016 19.7248C21.2347 19.7686 21.0615 19.7838 20.8896 19.7696C20.6752 19.7696 20.4224 19.7696 20.3008 19.5552C20.2275 19.4353 20.1654 19.3089 20.1152 19.1776C20.096 19.1264 20.1152 18.928 20.0384 18.896C20.0095 18.8849 19.9776 18.8849 19.9488 18.896H19.9328C19.8336 18.992 19.9328 19.1488 19.984 19.2384C20.0352 19.328 20.3296 19.76 20.0096 19.6864C19.8576 19.6494 19.6981 19.6594 19.552 19.7152C19.3479 19.8299 19.1116 19.8738 18.88 19.84C18.8384 19.84 18.6304 19.84 18.672 19.9328C18.7552 20.1408 19.4368 19.9328 19.568 19.9104C19.792 19.8784 20.0832 19.7952 20.2688 19.968C20.4544 20.1408 20.3232 20.352 20.3936 20.5184C20.4384 20.624 20.6208 20.7424 20.6752 20.5728C20.6964 20.4774 20.6828 20.3775 20.6368 20.2912C20.608 20.2176 20.5792 20.1472 20.5568 20.0736C20.5344 20 20.7264 19.9968 20.768 19.9968C20.9698 19.9898 21.1703 19.9619 21.3664 19.9136C21.5959 19.8604 21.8327 19.8453 22.0672 19.8688C22.08 19.8688 22.1376 19.8048 22.0992 19.7952Z" fill="#601D0B"/>
</g>
<g style="mix-blend-mode:multiply" opacity="0.5">
<path d="M21.8113 17.3083C21.7409 17.2475 21.5457 17.2443 21.4561 17.2283C21.263 17.2096 21.068 17.2248 20.8801 17.2731C20.4705 17.3627 20.0865 17.2059 19.6833 17.3691C19.4202 17.4738 19.1328 17.5015 18.8545 17.4491C18.642 17.4253 18.4279 17.4199 18.2145 17.4331C17.9553 17.4331 17.7857 17.4331 17.6801 17.1579C17.6103 16.963 17.5516 16.7643 17.5041 16.5627C17.5041 16.5435 17.4753 16.5627 17.4753 16.5787C17.4753 16.5787 17.4561 16.6107 17.4753 16.6203C17.4735 16.6384 17.4735 16.6566 17.4753 16.6747C17.4754 16.7562 17.469 16.8375 17.4561 16.9179C17.4222 17.0155 17.4133 17.12 17.4305 17.2219C17.4689 17.4171 17.2769 17.5643 17.1809 17.7179C17.1809 17.7179 17.1809 17.7659 17.1969 17.7531C17.2947 17.7172 17.3953 17.6894 17.4977 17.6699C17.6417 17.6443 17.6833 17.8875 17.7089 17.9707C17.7326 18.1235 17.7779 18.2722 17.8433 18.4123C17.8593 18.4379 17.9041 18.3899 17.9009 18.3675C17.8687 18.2037 17.8462 18.038 17.8337 17.8715C17.8113 17.5515 18.2881 17.6731 18.4385 17.6731C18.8225 17.6731 19.1969 17.5995 19.5809 17.5931C19.9658 17.6151 20.3518 17.5969 20.7329 17.5387C20.9153 17.4971 21.0881 17.4331 21.2737 17.4075C21.4593 17.3819 21.5937 17.4075 21.7505 17.4075C21.7793 17.4011 21.8433 17.3403 21.8113 17.3083Z" fill="#601D0B"/>
</g>
<g style="mix-blend-mode:multiply" opacity="0.5">
<path d="M20.1311 15.5042C20.0991 15.2834 19.8623 15.2386 19.6735 15.2898C19.3983 15.3602 19.2959 15.2226 19.1519 15.0146L18.8607 14.5986C18.8607 14.5986 18.8159 14.621 18.8127 14.6306C18.7745 14.7339 18.7745 14.8474 18.8127 14.9506C18.8319 15.0146 19.1135 15.2962 18.8447 15.2706C18.7454 15.2612 18.6456 15.2836 18.5599 15.3346C18.2975 15.4818 18.1759 15.3698 17.9423 15.261C17.8302 15.2075 17.7018 15.1994 17.5839 15.2386C17.4719 15.2802 17.3439 15.3698 17.2287 15.2386C17.1919 15.182 17.1364 15.1401 17.0719 15.1202C16.9678 15.0678 16.8497 15.0498 16.7347 15.0687C16.6197 15.0877 16.5136 15.1427 16.4319 15.2258C16.4319 15.2258 16.4319 15.2546 16.4319 15.2418C16.4501 15.2237 16.4719 15.2095 16.4959 15.2002C16.7967 15.133 16.6911 15.581 16.9727 15.613C16.9968 15.6194 17.0222 15.6194 17.0463 15.613C17.1089 15.5751 17.1799 15.5532 17.2531 15.5493C17.3262 15.5454 17.3992 15.5596 17.4655 15.5906C17.5818 15.6699 17.7025 15.7426 17.8271 15.8082C18.0767 15.9042 18.2015 15.4402 18.4671 15.533C18.5851 15.5905 18.7136 15.6232 18.8447 15.629C19.0527 15.629 19.1167 15.837 19.1999 15.981C19.2159 16.013 19.2543 15.9586 19.2575 15.9394C19.2735 15.7474 19.2575 15.469 19.5455 15.5362C19.6552 15.5684 19.7622 15.609 19.8655 15.6578C19.9647 15.6802 20.1599 15.6514 20.1311 15.5042Z" fill="#601D0B"/>
</g>
<g style="mix-blend-mode:multiply" opacity="0.5">
<path d="M20.5344 19.818C20.3666 19.7984 20.1977 19.7898 20.0288 19.7924C19.8624 19.7924 19.7088 19.8308 19.5328 19.8564C19.247 19.919 18.9548 19.9469 18.6624 19.9396C18.7648 20.1316 19.424 19.9396 19.5552 19.9076C19.7792 19.8756 20.0704 19.7924 20.256 19.9652C20.4416 20.138 20.3104 20.3492 20.3808 20.5156C20.4256 20.6212 20.608 20.7396 20.6624 20.57C20.6836 20.4746 20.67 20.3747 20.624 20.2884C20.5952 20.2148 20.5664 20.1444 20.544 20.0708C20.5216 19.9972 20.7136 19.994 20.7552 19.994C20.957 19.987 21.1575 19.9591 21.3536 19.9108C21.5831 19.8577 21.8199 19.8425 22.0544 19.866C22.0627 19.8687 22.0716 19.8687 22.08 19.866C21.5744 19.786 21.0464 19.8404 20.5344 19.818Z" fill="#601D0B"/>
</g>
<g style="mix-blend-mode:multiply" opacity="0.5">
<path d="M21.8016 17.3026C21.5552 17.3026 21.312 17.3538 21.0656 17.373C20.56 17.4082 20.0544 17.4082 19.5488 17.437H19.4464C19.3472 17.455 19.2464 17.4635 19.1456 17.4626L18.8256 17.4914L18.2304 17.5202C17.8951 17.5234 17.5636 17.5918 17.2544 17.7218C17.3391 17.6924 17.4257 17.6688 17.5136 17.6514C17.6576 17.6258 17.6992 17.869 17.7248 17.9522C17.7485 18.105 17.7938 18.2536 17.8592 18.3938C17.8752 18.4194 17.92 18.3714 17.9168 18.349C17.8846 18.1851 17.8621 18.0195 17.8496 17.853C17.8272 17.533 18.304 17.6546 18.4544 17.6546C18.8384 17.6546 19.2128 17.581 19.5968 17.5746C19.9816 17.5965 20.3677 17.5783 20.7488 17.5202C20.9312 17.4786 21.104 17.4146 21.2896 17.389C21.4752 17.3634 21.6096 17.389 21.7664 17.389C21.7952 17.389 21.8592 17.325 21.8272 17.293L21.8016 17.3026Z" fill="#601D0B"/>
</g>
<g style="mix-blend-mode:multiply" opacity="0.5">
<path d="M20.1023 15.4141C19.9364 15.3768 19.7667 15.3586 19.5967 15.3597C19.1647 15.3597 18.7327 15.4717 18.3007 15.5005C18.0703 15.5005 17.8559 15.4685 17.6287 15.4621C17.4552 15.4761 17.2808 15.4486 17.1199 15.3821C16.9813 15.3013 16.8279 15.249 16.6687 15.2285H16.6399C16.7807 15.3053 16.7551 15.6029 16.9823 15.6285C17.0064 15.6349 17.0318 15.6349 17.0559 15.6285C17.1185 15.5906 17.1896 15.5687 17.2627 15.5648C17.3358 15.5608 17.4088 15.5751 17.4751 15.6061C17.5914 15.6854 17.7122 15.7581 17.8367 15.8237C18.0863 15.9197 18.2111 15.4557 18.4767 15.5485C18.5947 15.606 18.7232 15.6387 18.8543 15.6445C19.0623 15.6445 19.1263 15.8525 19.2095 15.9965C19.2255 16.0285 19.2639 15.9741 19.2671 15.9549C19.2831 15.7629 19.2671 15.4845 19.5551 15.5517C19.6648 15.5838 19.7718 15.6245 19.8751 15.6733C19.9775 15.7085 20.1695 15.6733 20.1439 15.5197C20.137 15.4822 20.1229 15.4463 20.1023 15.4141Z" fill="#601D0B"/>
</g>
<path d="M12.9024 18.2399C12.9024 18.2047 12.8769 18.1023 12.8257 18.1503C12.7745 18.1983 12.7681 18.2655 12.7969 18.3167C12.7991 18.3265 12.8049 18.3352 12.8132 18.3411C12.8214 18.347 12.8316 18.3497 12.8416 18.3487C12.85 18.3464 12.8577 18.3423 12.8643 18.3368C12.8709 18.3313 12.8763 18.3244 12.88 18.3167C12.8967 18.2947 12.9047 18.2674 12.9024 18.2399Z" fill="#050505"/>
<path d="M12.4127 18.5597C12.4127 18.5405 12.3839 18.5309 12.3679 18.5245C12.3547 18.5192 12.34 18.5192 12.3268 18.5246C12.3137 18.5299 12.3032 18.5403 12.2975 18.5533C12.2879 18.578 12.2879 18.6054 12.2975 18.6301C12.2996 18.6431 12.3052 18.6553 12.3136 18.6655C12.3221 18.6756 12.3331 18.6833 12.3455 18.6877C12.3839 18.7069 12.4159 18.6653 12.4255 18.6301C12.4293 18.6059 12.4248 18.5811 12.4127 18.5597Z" fill="#050505"/>
<path d="M11.8783 18.2083C11.8692 18.1932 11.8571 18.18 11.8428 18.1696C11.8285 18.1591 11.8123 18.1516 11.7951 18.1475C11.7599 18.1475 11.6991 18.1699 11.7119 18.2147C11.7247 18.2595 11.7631 18.2627 11.7919 18.2755C11.8085 18.2833 11.8275 18.2843 11.8448 18.2783C11.8622 18.2723 11.8765 18.2598 11.8847 18.2435C11.8847 18.2435 11.8943 18.2051 11.8783 18.2083Z" fill="#050505"/>
<path d="M11.3952 17.3567C11.389 17.3527 11.3818 17.3506 11.3744 17.3506C11.367 17.3506 11.3598 17.3527 11.3536 17.3567C11.339 17.3675 11.3278 17.3824 11.3216 17.3994C11.3153 17.4165 11.3142 17.435 11.3184 17.4527C11.3203 17.4602 11.3243 17.4669 11.33 17.472C11.3357 17.4771 11.3428 17.4805 11.3504 17.4815C11.3696 17.4815 11.3856 17.4815 11.3984 17.4591C11.4052 17.4523 11.4105 17.4442 11.414 17.4353C11.4175 17.4264 11.4192 17.4168 11.4189 17.4072C11.4186 17.3976 11.4163 17.3882 11.4123 17.3795C11.4082 17.3708 11.4024 17.3631 11.3952 17.3567Z" fill="#050505"/>
<path d="M11.3024 16.8926C11.3024 16.8926 11.28 16.8734 11.2704 16.867C11.2704 16.867 11.2704 16.851 11.248 16.8478C11.2256 16.8446 11.2192 16.8478 11.2128 16.867C11.2113 16.8765 11.2113 16.8862 11.2128 16.8958C11.2137 16.9194 11.2227 16.942 11.2384 16.9598C11.2576 16.9886 11.2864 17.0046 11.3152 16.9598C11.319 16.9366 11.3145 16.9127 11.3024 16.8926Z" fill="#050505"/>
<path d="M15.2416 18.9501C15.2355 18.9345 15.228 18.9195 15.2192 18.9053C15.2 18.9053 15.1712 18.9213 15.1616 18.9341C15.1502 18.9629 15.1502 18.9949 15.1616 19.0237C15.167 19.0412 15.1757 19.0575 15.1872 19.0717C15.1899 19.075 15.1933 19.0777 15.1972 19.0796C15.2011 19.0814 15.2053 19.0824 15.2096 19.0824C15.2139 19.0824 15.2182 19.0814 15.222 19.0796C15.2259 19.0777 15.2293 19.075 15.232 19.0717C15.2464 19.0658 15.2587 19.0558 15.2672 19.0429C15.2768 19.0205 15.2576 18.9821 15.2416 18.9501Z" fill="#050505"/>
<path d="M16.0384 19.2385C16.0407 19.2353 16.042 19.2314 16.042 19.2273C16.042 19.2233 16.0407 19.2194 16.0384 19.2161L16 19.2001C15.9951 19.1905 15.9872 19.1826 15.9776 19.1777C15.952 19.1777 15.9296 19.2001 15.92 19.2225C15.9136 19.2316 15.9092 19.2419 15.907 19.2528C15.9049 19.2637 15.905 19.2749 15.9074 19.2858C15.9098 19.2966 15.9145 19.3068 15.921 19.3158C15.9276 19.3247 15.936 19.3322 15.9456 19.3377C15.9744 19.3537 16.0032 19.3377 16.0256 19.3153C16.035 19.3052 16.0413 19.2925 16.0436 19.2789C16.0458 19.2652 16.044 19.2512 16.0384 19.2385Z" fill="#050505"/>
<path d="M16.9921 19.088C16.9797 19.0664 16.9606 19.0496 16.9377 19.04C16.9121 19.04 16.8865 19.0592 16.8769 19.0752C16.8754 19.0901 16.8754 19.1051 16.8769 19.12C16.8769 19.1648 16.9121 19.2672 16.9697 19.248C16.9868 19.2491 17.0038 19.2438 17.0174 19.2332C17.031 19.2226 17.0402 19.2074 17.0433 19.1904C17.0391 19.1512 17.0209 19.1149 16.9921 19.088Z" fill="#050505"/>
<path d="M17.1872 19.9809C17.1881 19.9692 17.1881 19.9575 17.1872 19.9457C17.1825 19.9326 17.1735 19.9213 17.1616 19.9137C17.1548 19.9054 17.146 19.8988 17.136 19.8945C17.1266 19.8944 17.1173 19.897 17.1093 19.9022C17.1013 19.9073 17.095 19.9147 17.0912 19.9233C17.085 19.9366 17.0823 19.9514 17.0836 19.966C17.0848 19.9807 17.0899 19.9947 17.0984 20.0068C17.1068 20.0188 17.1183 20.0284 17.1317 20.0345C17.1451 20.0407 17.1598 20.0432 17.1744 20.0417C17.1744 20.0417 17.2032 20.0417 17.2096 20.0193C17.2096 20.0193 17.1872 19.9873 17.1872 19.9809Z" fill="#050505"/>
<path d="M14.3072 16.3198C14.3086 16.289 14.2996 16.2586 14.2816 16.2334C14.2592 16.2014 14.2304 16.211 14.208 16.2334C14.193 16.2512 14.1821 16.2719 14.176 16.2942C14.163 16.3305 14.163 16.37 14.176 16.4062C14.178 16.4129 14.1816 16.4189 14.1866 16.4238C14.1916 16.4287 14.1977 16.4322 14.2043 16.4341C14.211 16.4361 14.2181 16.4363 14.2249 16.4347C14.2316 16.4332 14.2379 16.43 14.2432 16.4254C14.2573 16.4237 14.2705 16.4174 14.2808 16.4076C14.2912 16.3979 14.2982 16.385 14.3008 16.371C14.3066 16.3547 14.3088 16.3372 14.3072 16.3198Z" fill="#050505"/>
<path d="M15.056 16.4515C15.0507 16.4409 15.0416 16.4329 15.0304 16.4291C15.0304 16.4291 15.0304 16.4131 15.0016 16.4131C14.9915 16.4165 14.9824 16.4224 14.9751 16.4302C14.9678 16.438 14.9627 16.4475 14.96 16.4579C14.9555 16.4677 14.9544 16.4788 14.9569 16.4893C14.9594 16.4998 14.9655 16.5092 14.974 16.5158C14.9825 16.5225 14.993 16.5261 15.0039 16.526C15.0147 16.526 15.0252 16.5223 15.0336 16.5155C15.043 16.508 15.05 16.498 15.054 16.4867C15.0579 16.4754 15.0586 16.4632 15.056 16.4515Z" fill="#050505"/>
<path d="M15.1711 16.1084C15.1711 16.1084 15.1455 16.1084 15.1359 16.1084C15.1207 16.1109 15.1066 16.1181 15.0957 16.129C15.0848 16.1399 15.0776 16.154 15.0751 16.1692C15.0721 16.1919 15.0768 16.2149 15.0884 16.2346C15.1 16.2544 15.1178 16.2696 15.1391 16.278C15.1486 16.2825 15.159 16.2849 15.1695 16.2849C15.18 16.2849 15.1904 16.2825 15.1999 16.278C15.21 16.2687 15.2179 16.2573 15.2229 16.2445C15.2279 16.2318 15.2299 16.2181 15.2287 16.2044C15.2278 16.1849 15.222 16.1659 15.212 16.1492C15.2019 16.1324 15.1879 16.1184 15.1711 16.1084Z" fill="#050505"/>
<path d="M14.2688 16.8579C14.2649 16.8557 14.2605 16.8545 14.256 16.8545C14.2515 16.8545 14.2471 16.8557 14.2432 16.8579C14.2392 16.8562 14.2348 16.8553 14.2304 16.8553C14.226 16.8553 14.2216 16.8562 14.2176 16.8579C14.2106 16.8677 14.2068 16.8795 14.2068 16.8915C14.2068 16.9036 14.2106 16.9153 14.2176 16.9251C14.2176 16.9443 14.2432 16.9635 14.2656 16.9539C14.2737 16.9489 14.2804 16.942 14.2852 16.9338C14.29 16.9256 14.2927 16.9163 14.293 16.9068C14.2933 16.8973 14.2913 16.8878 14.287 16.8793C14.2828 16.8708 14.2766 16.8634 14.2688 16.8579Z" fill="#050505"/>
<path d="M13.6097 15.5713C13.6097 15.5713 13.6097 15.5713 13.5873 15.5713H13.5681C13.5233 15.5713 13.5457 15.6577 13.5681 15.6865C13.5905 15.7153 13.5937 15.7249 13.6161 15.7249C13.6279 15.724 13.6391 15.7196 13.6482 15.7121C13.6574 15.7047 13.6641 15.6946 13.6673 15.6833C13.6715 15.6609 13.6682 15.6377 13.6578 15.6174C13.6473 15.5971 13.6304 15.5809 13.6097 15.5713Z" fill="#050505"/>
<path d="M12.0161 15.3989C12.0109 15.3871 12.0034 15.3765 11.9941 15.3677C11.9847 15.359 11.9737 15.3521 11.9617 15.3477C11.9617 15.3477 11.9329 15.3477 11.9297 15.3669C11.918 15.373 11.9091 15.3834 11.905 15.396C11.9008 15.4085 11.9016 15.4221 11.9073 15.4341C11.9105 15.442 11.9153 15.4492 11.9213 15.4552C11.9274 15.4613 11.9345 15.466 11.9425 15.4693C11.9501 15.4741 11.959 15.4767 11.9681 15.4767C11.9771 15.4767 11.986 15.4741 11.9937 15.4693C12.0023 15.4635 12.0096 15.4559 12.0152 15.4471C12.0207 15.4383 12.0243 15.4284 12.0257 15.4181C12.0233 15.4113 12.0201 15.4048 12.0161 15.3989Z" fill="#050505"/>
<path d="M11.9743 19.9998C11.9629 19.9956 11.9505 19.9956 11.9391 19.9998C11.9311 19.9961 11.9224 19.9941 11.9135 19.9941C11.9047 19.9941 11.8959 19.9961 11.8879 19.9998C11.8239 20.0222 11.8399 20.1022 11.8879 20.1406C11.8947 20.1507 11.9034 20.1594 11.9135 20.1662H11.9391C11.952 20.1667 11.9647 20.1629 11.9751 20.1553C11.9855 20.1478 11.9931 20.137 11.9967 20.1246C12.0052 20.1038 12.0076 20.081 12.0036 20.0589C11.9997 20.0368 11.9895 20.0163 11.9743 19.9998Z" fill="#050505"/>
<path d="M12.2111 20.5155C12.2041 20.5044 12.1941 20.4956 12.1823 20.4899C12.1755 20.4844 12.167 20.4814 12.1583 20.4814C12.1496 20.4814 12.1411 20.4844 12.1343 20.4899C12.0895 20.5123 12.0927 20.5699 12.1087 20.6083C12.111 20.6185 12.1158 20.6281 12.1227 20.636C12.1295 20.644 12.1382 20.6502 12.1481 20.654C12.1579 20.6578 12.1685 20.6591 12.1789 20.6578C12.1893 20.6565 12.1993 20.6527 12.2079 20.6467C12.2527 20.6019 12.2367 20.5539 12.2111 20.5155Z" fill="#050505"/>
<path d="M12.7521 20.9598C12.7521 20.9342 12.7233 20.9022 12.6977 20.915C12.6721 20.9278 12.6497 20.9886 12.6593 21.0238C12.6678 21.0403 12.6812 21.0537 12.6977 21.0622C12.7169 21.0622 12.7361 21.0622 12.7489 21.0622C12.7626 21.0489 12.7706 21.0308 12.7712 21.0117C12.7718 20.9926 12.7649 20.974 12.7521 20.9598Z" fill="#050505"/>
<path d="M14.128 21.318C14.112 21.2997 14.09 21.2878 14.0659 21.2843C14.0419 21.2808 14.0174 21.2859 13.9968 21.2988C13.975 21.3141 13.9572 21.3345 13.9449 21.3582C13.9327 21.3819 13.9263 21.4081 13.9263 21.4348C13.9263 21.4614 13.9327 21.4877 13.9449 21.5114C13.9572 21.5351 13.975 21.5554 13.9968 21.5708C14.0081 21.5777 14.0207 21.5822 14.0337 21.5842C14.0468 21.5861 14.0602 21.5855 14.073 21.5822C14.0858 21.5789 14.0979 21.5731 14.1084 21.5651C14.119 21.5571 14.1278 21.5471 14.1344 21.5356C14.1358 21.5196 14.1358 21.5036 14.1344 21.4876V21.4652H14.1568C14.1667 21.4405 14.1693 21.4134 14.1642 21.3873C14.1591 21.3612 14.1465 21.3371 14.128 21.318Z" fill="#050505"/>
<path d="M14.768 21.213C14.7657 21.2058 14.7618 21.1993 14.7566 21.1938C14.7514 21.1883 14.7451 21.184 14.738 21.1813C14.731 21.1785 14.7234 21.1773 14.7159 21.1779C14.7084 21.1784 14.701 21.1805 14.6944 21.1842C14.6764 21.1956 14.6621 21.2119 14.653 21.2312C14.6439 21.2504 14.6405 21.2719 14.6432 21.293C14.6432 21.2988 14.6444 21.3044 14.6467 21.3097C14.649 21.315 14.6523 21.3197 14.6565 21.3236C14.6607 21.3275 14.6657 21.3305 14.6711 21.3324C14.6766 21.3343 14.6823 21.3351 14.688 21.3346C14.6979 21.3397 14.7089 21.3423 14.72 21.3423C14.7312 21.3423 14.7421 21.3397 14.752 21.3346C14.7611 21.3277 14.7687 21.3191 14.7744 21.3092C14.7802 21.2994 14.7839 21.2885 14.7854 21.2771C14.7868 21.2658 14.7861 21.2544 14.7831 21.2434C14.7801 21.2323 14.775 21.222 14.768 21.213Z" fill="#050505"/>
<path d="M15.1105 21.5361C15.0849 21.5137 15.0465 21.4785 15.0113 21.4785C14.9953 21.4782 14.9793 21.4812 14.9645 21.4873C14.9496 21.4933 14.9362 21.5023 14.9249 21.5137C14.8673 21.5745 14.9249 21.6513 14.9761 21.6801C14.9923 21.6869 15.0101 21.689 15.0274 21.686C15.0447 21.6831 15.0608 21.6753 15.0739 21.6636C15.087 21.6519 15.0965 21.6367 15.1012 21.6198C15.106 21.6029 15.1059 21.585 15.1009 21.5681C15.1009 21.5681 15.1169 21.5425 15.1105 21.5361Z" fill="#050505"/>
<path d="M16.8703 22.4636C16.8703 22.4412 16.8351 22.3964 16.8095 22.3996C16.7743 22.3996 16.7423 22.438 16.7327 22.4668C16.7231 22.4956 16.7551 22.534 16.7775 22.5564C16.785 22.5621 16.7937 22.566 16.8029 22.568C16.8121 22.57 16.8216 22.5699 16.8308 22.5677C16.8399 22.5656 16.8485 22.5615 16.8559 22.5556C16.8633 22.5498 16.8693 22.5424 16.8735 22.534C16.8808 22.5235 16.8845 22.511 16.8839 22.4982C16.8833 22.4855 16.8786 22.4733 16.8703 22.4636Z" fill="#050505"/>
<path d="M14.3328 23.2862C14.3298 23.2828 14.3262 23.2801 14.322 23.2782C14.3179 23.2764 14.3134 23.2754 14.3088 23.2754C14.3043 23.2754 14.2998 23.2764 14.2957 23.2782C14.2915 23.2801 14.2878 23.2828 14.2848 23.2862C14.2592 23.3118 14.2688 23.3406 14.2848 23.3662C14.2833 23.3725 14.2833 23.3791 14.2848 23.3854L14.3104 23.411C14.336 23.4334 14.3712 23.411 14.3744 23.3758C14.3763 23.3585 14.3734 23.341 14.3661 23.3253C14.3587 23.3095 14.3472 23.296 14.3328 23.2862Z" fill="#050505"/>
<path d="M15.712 14.8319C15.712 14.8063 15.6544 14.8031 15.632 14.8095C15.6081 14.8207 15.5891 14.8401 15.5785 14.8643C15.5679 14.8884 15.5664 14.9155 15.5744 14.9407C15.5968 14.9887 15.664 14.9631 15.6928 14.9407C15.7216 14.9183 15.7536 14.8607 15.712 14.8319Z" fill="#050505"/>
<path d="M16.7713 14.4189C16.7579 14.4195 16.7453 14.4252 16.7361 14.4349C16.7271 14.4407 16.7194 14.4483 16.7137 14.4573C16.7124 14.4701 16.7124 14.483 16.7137 14.4957C16.7087 14.5081 16.7087 14.5218 16.7137 14.5341C16.722 14.5389 16.7313 14.5414 16.7409 14.5414C16.7504 14.5414 16.7598 14.5389 16.7681 14.5341C16.7806 14.5294 16.7919 14.5217 16.8008 14.5116C16.8097 14.5016 16.816 14.4896 16.8193 14.4765C16.8195 14.4628 16.8148 14.4494 16.806 14.4389C16.7971 14.4283 16.7849 14.4212 16.7713 14.4189Z" fill="#050505"/>
<path d="M18.1375 14.3997C18.1293 14.386 18.1196 14.3731 18.1087 14.3613C18.1053 14.3545 18.0995 14.3491 18.0925 14.3462C18.0854 14.3433 18.0776 14.343 18.0703 14.3453C18.0611 14.3439 18.0516 14.3457 18.0435 14.3503C18.0354 14.355 18.029 14.3622 18.0255 14.3709C18.0148 14.3882 18.009 14.4081 18.009 14.4285C18.009 14.4489 18.0148 14.4688 18.0255 14.4861C18.0255 14.4861 18.0511 14.5213 18.0735 14.5181C18.0868 14.5168 18.0994 14.512 18.1101 14.5041C18.1208 14.4962 18.1292 14.4856 18.1343 14.4733C18.1401 14.462 18.1433 14.4495 18.1438 14.4368C18.1444 14.4242 18.1422 14.4115 18.1375 14.3997Z" fill="#050505"/>
<path d="M17.8911 14.7201C17.8852 14.7142 17.8771 14.7109 17.8687 14.7109C17.8604 14.7109 17.8523 14.7142 17.8463 14.7201C17.8395 14.7273 17.8342 14.7359 17.8309 14.7452C17.8276 14.7546 17.8263 14.7646 17.8271 14.7745C17.8294 14.7816 17.8343 14.7876 17.8409 14.7912C17.8474 14.7948 17.8551 14.7957 17.8623 14.7937C17.8695 14.7913 17.8761 14.7874 17.8816 14.7822C17.8871 14.7771 17.8914 14.7707 17.8941 14.7637C17.8969 14.7566 17.898 14.7491 17.8975 14.7416C17.897 14.734 17.8948 14.7267 17.8911 14.7201Z" fill="#050505"/>
<path d="M18.8319 14.1985L18.8127 14.1697C18.8127 14.1441 18.7743 14.1313 18.7519 14.1697C18.7449 14.1831 18.7412 14.1979 18.7412 14.2129C18.7412 14.228 18.7449 14.2428 18.7519 14.2561C18.7519 14.2849 18.7839 14.3201 18.8159 14.3105C18.824 14.3083 18.8313 14.3038 18.8369 14.2975C18.8426 14.2913 18.8464 14.2836 18.8479 14.2753C18.8527 14.2623 18.8538 14.2482 18.851 14.2346C18.8481 14.221 18.8415 14.2085 18.8319 14.1985Z" fill="#050505"/>
<path d="M19.9488 14.467C19.9488 14.467 19.92 14.4446 19.904 14.467C19.8817 14.4784 19.8646 14.4978 19.856 14.5214C19.8368 14.6014 19.9456 14.7134 20.0128 14.6334C20.08 14.5534 19.9904 14.4958 19.9488 14.467Z" fill="#050505"/>
<path d="M20.5183 15.8939V15.8779C20.4991 15.8555 20.4735 15.7371 20.4223 15.7691C20.3711 15.8011 20.3839 15.8619 20.3967 15.9099C20.4095 15.9579 20.4671 16.0283 20.5183 15.9611C20.5239 15.9508 20.5268 15.9393 20.5268 15.9275C20.5268 15.9158 20.5239 15.9042 20.5183 15.8939Z" fill="#050505"/>
<path d="M20.5472 16.358C20.5472 16.358 20.5632 16.358 20.5472 16.3356C20.5285 16.3295 20.5083 16.3295 20.4896 16.3356C20.4746 16.3381 20.4605 16.3449 20.4492 16.3551C20.4379 16.3653 20.4297 16.3785 20.4256 16.3932C20.4199 16.4045 20.4176 16.4172 20.4188 16.4297C20.4199 16.4423 20.4246 16.4543 20.4323 16.4643C20.44 16.4743 20.4504 16.482 20.4622 16.4864C20.474 16.4908 20.4869 16.4918 20.4992 16.4892C20.5196 16.4813 20.5364 16.4662 20.5464 16.4467C20.5565 16.4273 20.559 16.4048 20.5536 16.3836L20.5472 16.358Z" fill="#050505"/>
<path d="M19.3184 16.9595C19.3149 16.956 19.3106 16.9531 19.306 16.9512C19.3013 16.9492 19.2963 16.9482 19.2912 16.9482C19.2862 16.9482 19.2812 16.9492 19.2765 16.9512C19.2718 16.9531 19.2676 16.956 19.264 16.9595C19.2491 16.9687 19.2372 16.9822 19.2298 16.9981C19.2224 17.014 19.2198 17.0318 19.2224 17.0491C19.2224 17.0811 19.2448 17.1067 19.28 17.1035C19.2988 17.1006 19.3163 17.092 19.33 17.0788C19.3438 17.0657 19.3531 17.0486 19.3568 17.0299C19.3579 17.0157 19.3549 17.0015 19.3481 16.989C19.3412 16.9766 19.331 16.9663 19.3184 16.9595Z" fill="#050505"/>
<path d="M18.6079 16.7396C18.6033 16.7219 18.5941 16.7057 18.5811 16.6928C18.5682 16.6798 18.552 16.6706 18.5343 16.666C18.4895 16.666 18.4543 16.6948 18.4447 16.7364C18.4377 16.7561 18.4381 16.7776 18.4457 16.797C18.4534 16.8164 18.4678 16.8324 18.4863 16.842C18.4974 16.8466 18.5094 16.8485 18.5214 16.8475C18.5334 16.8466 18.5449 16.8429 18.5552 16.8366C18.5655 16.8304 18.5741 16.8219 18.5805 16.8117C18.5869 16.8015 18.5908 16.79 18.5919 16.778C18.598 16.7738 18.6027 16.768 18.6055 16.7612C18.6084 16.7544 18.6092 16.7469 18.6079 16.7396Z" fill="#050505"/>
<path d="M21.3216 16.5118C21.3279 16.4898 21.3279 16.4665 21.3216 16.4446C21.3126 16.4281 21.2997 16.4139 21.2841 16.4033C21.2686 16.3928 21.2507 16.3861 21.232 16.3838C21.2213 16.3807 21.2098 16.3813 21.1994 16.3853C21.189 16.3894 21.1802 16.3967 21.1744 16.4062C21.1489 16.433 21.1348 16.4685 21.1348 16.5054C21.1348 16.5423 21.1489 16.5778 21.1744 16.6046C21.1874 16.6154 21.203 16.6227 21.2197 16.6257C21.2364 16.6288 21.2535 16.6276 21.2696 16.6221C21.2856 16.6167 21.3 16.6072 21.3114 16.5946C21.3227 16.582 21.3306 16.5667 21.3344 16.5502C21.3342 16.5364 21.3297 16.523 21.3216 16.5118Z" fill="#050505"/>
<path d="M21.3119 18.3327C21.3134 18.3242 21.3134 18.3156 21.3119 18.3071C21.3119 18.2719 21.2543 18.2815 21.2383 18.3071C21.2267 18.3249 21.219 18.3449 21.2157 18.3659C21.2124 18.3868 21.2136 18.4082 21.2191 18.4287C21.2191 18.4639 21.2607 18.5119 21.3055 18.4959C21.3503 18.4799 21.3439 18.3871 21.3119 18.3327Z" fill="#050505"/>
<path d="M21.7985 18.5596C21.7895 18.5473 21.7787 18.5366 21.7665 18.5276C21.759 18.5223 21.75 18.5195 21.7409 18.5195C21.7317 18.5195 21.7228 18.5223 21.7153 18.5276C21.7016 18.5417 21.6917 18.5592 21.6867 18.5782C21.6817 18.5973 21.6816 18.6173 21.6865 18.6364C21.6897 18.6496 21.6963 18.6617 21.7057 18.6716H21.7249C21.7354 18.6743 21.7464 18.6743 21.7569 18.6716C21.7569 18.6716 21.8017 18.6524 21.8049 18.6396C21.8134 18.6131 21.8111 18.5844 21.7985 18.5596Z" fill="#050505"/>
<path d="M20.336 18.6468C20.336 18.618 20.2912 18.5924 20.2592 18.6308C20.2457 18.6519 20.237 18.6758 20.2337 18.7006C20.2304 18.7255 20.2325 18.7508 20.24 18.7748C20.24 18.8356 20.3264 18.874 20.3648 18.81C20.3801 18.7838 20.3856 18.753 20.3803 18.7231C20.3751 18.6932 20.3593 18.6661 20.336 18.6468Z" fill="#050505"/>
<path d="M19.7279 18.3742C19.7279 18.339 19.6831 18.2686 19.6415 18.2846C19.5999 18.3006 19.5871 18.3518 19.5839 18.3966C19.5801 18.4209 19.5821 18.4458 19.5899 18.4692C19.5977 18.4926 19.611 18.5138 19.6287 18.531C19.6767 18.5758 19.7375 18.5118 19.7407 18.4638C19.745 18.4488 19.746 18.433 19.7438 18.4176C19.7416 18.4022 19.7362 18.3874 19.7279 18.3742Z" fill="#050505"/>
<path d="M19.0209 18.8801C19.0157 18.8596 19.0071 18.8401 18.9953 18.8225V18.8065C18.9601 18.7553 18.9121 18.8065 18.9057 18.8513C18.8993 18.8961 18.9057 18.9857 18.9793 18.9633C18.9944 18.9559 19.0066 18.9438 19.0141 18.9287C19.0216 18.9137 19.024 18.8966 19.0209 18.8801Z" fill="#050505"/>
<path d="M20.2976 21.2094C20.2946 21.1952 20.288 21.182 20.2784 21.171C20.2496 21.1358 20.2112 21.171 20.1984 21.1998C20.1904 21.2248 20.1904 21.2516 20.1984 21.2766C20.2016 21.2854 20.2067 21.2934 20.2134 21.2999C20.2201 21.3065 20.2283 21.3113 20.2372 21.3142C20.2461 21.3171 20.2556 21.3178 20.2649 21.3164C20.2741 21.315 20.2829 21.3115 20.2906 21.3061C20.2983 21.3007 20.3046 21.2937 20.3091 21.2854C20.3136 21.2772 20.3161 21.2681 20.3165 21.2587C20.3169 21.2493 20.3151 21.24 20.3112 21.2315C20.3074 21.2229 20.3017 21.2154 20.2944 21.2094H20.2976Z" fill="#050505"/>
<path d="M20.7361 21.4843C20.7269 21.4875 20.7184 21.4925 20.7112 21.4992C20.7041 21.5058 20.6984 21.5138 20.6945 21.5227C20.6805 21.5476 20.6731 21.5757 20.6731 21.6043C20.6731 21.6329 20.6805 21.661 20.6945 21.6859C20.6945 21.7147 20.7489 21.7083 20.7713 21.6859C20.7864 21.6755 20.799 21.6617 20.8078 21.6456C20.8167 21.6295 20.8217 21.6115 20.8225 21.5931C20.8193 21.5579 20.8001 21.4683 20.7361 21.4843Z" fill="#050505"/>
<path d="M21.7889 20.5183C21.7669 20.5311 21.7506 20.5518 21.7435 20.5762C21.7363 20.6006 21.7389 20.6269 21.7505 20.6495C21.7793 20.7071 21.8561 20.6815 21.8753 20.6271C21.9329 20.5663 21.8465 20.4799 21.7889 20.5183Z" fill="#050505"/>
<path d="M10.8799 16.4833C10.8511 16.4417 10.8095 16.3745 10.7711 16.3105C10.775 16.4283 10.761 16.5459 10.7295 16.6593C10.7967 16.6913 10.8895 16.7425 10.9887 16.7969C11.1679 16.8961 10.9631 16.5985 10.8799 16.4833Z" fill="#6C260C"/>
<path d="M10.3584 18.5182C10.2364 18.4281 10.1286 18.3202 10.0384 18.1982C10.0249 18.3228 10.0483 18.4485 10.1056 18.5598C10.3456 18.6526 10.4096 18.5598 10.3584 18.5182Z" fill="#6C260C"/>
<path d="M15.4049 5.3986L15.2417 5.6066L15.1265 5.3698C15.1249 5.36242 15.1249 5.35477 15.1265 5.3474C15.1265 5.3282 15.1265 5.3218 15.1041 5.3474L15.0401 5.2002C15.0401 5.2002 15.0145 5.2002 15.0177 5.2194C15.0209 5.2386 15.0657 5.3218 15.0913 5.3762C15.0429 5.43575 14.9991 5.49886 14.9601 5.565C14.9377 5.5154 14.9196 5.46402 14.9057 5.4114C14.9057 5.3954 14.8801 5.4114 14.8801 5.4274C14.8881 5.49244 14.9054 5.55601 14.9313 5.6162C14.8641 5.741 14.8193 5.869 14.7617 6.0002C14.7617 6.0162 14.7617 6.0002 14.7841 6.0002C14.8321 5.901 14.8705 5.7986 14.9185 5.6802L14.9473 5.629C14.9821 5.70666 15.0227 5.78154 15.0689 5.853C15.0273 5.9362 14.9921 6.0226 14.9473 6.1058C14.9473 6.1282 14.9473 6.1282 14.9697 6.1058C15.0145 6.0322 15.0497 5.9554 15.0881 5.8754C15.0962 5.89026 15.1058 5.90421 15.1169 5.917C15.1169 5.9362 15.1585 5.917 15.1521 5.8882L15.1169 5.821C15.15 5.75903 15.1886 5.70013 15.2321 5.645C15.2577 5.6962 15.2865 5.7442 15.3153 5.7922C15.3441 5.8402 15.3537 5.7922 15.3473 5.7666L15.2609 5.6066C15.3217 5.533 15.3793 5.4594 15.4305 5.3858C15.4401 5.389 15.4177 5.3826 15.4049 5.3986ZM15.1329 5.7602C15.1172 5.77916 15.1033 5.79951 15.0913 5.821C15.0529 5.7474 15.0081 5.6738 14.9697 5.597C15.0081 5.533 15.0529 5.469 15.0977 5.4082L15.2129 5.6482L15.1329 5.7602Z" fill="#8E785A"/>
<g style="mix-blend-mode:screen">
<path d="M12.2593 22.8963C12.1377 22.5475 11.9809 22.0547 11.8273 21.7219C11.6648 21.3366 11.5571 20.9306 11.5073 20.5155C11.4497 20.1342 11.3285 19.7654 11.1489 19.4243C10.9697 19.1043 10.7009 18.8099 10.5345 18.4643C10.4545 18.2621 10.4425 18.0395 10.5003 17.83C10.558 17.6204 10.6823 17.4353 10.8545 17.3027C10.9555 17.2312 11.0362 17.1345 11.0884 17.0222C11.1406 16.91 11.1625 16.786 11.1521 16.6627C11.0977 16.2307 10.7393 15.9235 11.0113 15.4723C11.1457 15.2483 11.3313 15.0819 11.3313 14.8035C11.3313 14.7715 11.2833 14.8035 11.2801 14.8291C11.2385 15.1779 10.9089 15.3379 10.8161 15.6579C10.7579 15.994 10.8142 16.34 10.9761 16.6403C11.1297 17.0819 10.6945 17.2355 10.4993 17.5523C10.3309 17.8257 10.2747 18.1536 10.3425 18.4675C10.4928 18.81 10.6852 19.1325 10.9153 19.4275C11.1262 19.8012 11.2642 20.2117 11.3217 20.6371C11.3701 21.0116 11.4559 21.3804 11.5777 21.7379C11.7311 22.1219 11.9265 22.4878 12.1601 22.8291C12.2113 22.8931 12.2785 22.9539 12.2593 22.8963Z" fill="#944620"/>
<path d="M14.4672 24.0001C14.0696 23.959 13.6871 23.8253 13.3504 23.6097C13.0862 23.3461 12.7789 23.1296 12.4416 22.9697C12.4192 22.9697 12.4896 23.0145 12.512 23.0273C12.832 23.2097 13.0016 23.5713 13.2704 23.8017C13.598 24.037 13.9977 24.1502 14.4 24.1217C14.4416 24.1409 14.5312 24.0289 14.4672 24.0001Z" fill="#944620"/>
</g>
<path d="M18.6848 12.8706C18.6848 12.8706 17.9744 11.0338 18.7456 9.80176C18.3584 10.013 17.9904 11.149 18.4032 12.4578C18.56 12.9026 18.6976 12.9698 18.6848 12.8706Z" fill="#0B480C"/>
<path d="M18.656 12.845C18.656 12.845 18.6816 12.0194 19.2256 11.8498C19.1066 11.8427 18.988 11.869 18.8831 11.9257C18.7783 11.9824 18.6914 12.0673 18.6322 12.1707C18.5729 12.2742 18.5438 12.3921 18.548 12.5112C18.5522 12.6304 18.5896 12.7459 18.656 12.845Z" fill="#4B8B2D"/>
<path d="M18.5407 12.7234C18.2919 12.4907 17.9844 12.3302 17.6511 12.2594C17.8815 12.0866 18.4703 12.397 18.5407 12.7234Z" fill="#4B8B2D"/>
<path d="M18.4033 12.4578C18.1915 12.0525 17.8985 11.6952 17.5425 11.4082C17.9009 11.4242 18.4641 12.1602 18.4033 12.4578Z" fill="#4B8B2D"/>
<path d="M18.4416 12.1788C18.4416 12.1788 18.4992 11.5612 19.0464 11.4812C18.688 11.35 18.1952 11.59 18.4416 12.1788Z" fill="#68B42E"/>
<path d="M18.3679 11.4402C18.3885 11.3441 18.43 11.2538 18.4895 11.1755C18.5489 11.0973 18.6249 11.0332 18.712 10.9877C18.799 10.9422 18.8951 10.9164 18.9932 10.9122C19.0914 10.908 19.1893 10.9255 19.2799 10.9634C18.7775 10.6818 18.2175 10.8034 18.3679 11.4402Z" fill="#4B8B2D"/>
<path d="M18.2753 11.7151C18.1161 11.4795 17.9062 11.2827 17.6609 11.1391C17.9201 11.0751 18.3265 11.5199 18.2753 11.7151Z" fill="#4B8B2D"/>
<path d="M18.3232 11.0594C18.4319 10.8673 18.5774 10.6985 18.7515 10.5629C18.9256 10.4272 19.1248 10.3274 19.3376 10.269C19.5808 10.2402 18.4288 9.9202 18.3232 11.0594Z" fill="#4B8B2D"/>
<path d="M18.24 11.2542C18.0901 10.9501 17.8323 10.7128 17.5168 10.5886C17.7568 10.4734 18.3136 10.899 18.24 11.2542Z" fill="#68B42E"/>
<path d="M18.304 10.8254C18.0888 10.4996 17.957 10.126 17.92 9.73737C17.92 9.58377 17.648 10.115 18.288 10.931C18.2907 10.8954 18.296 10.8601 18.304 10.8254Z" fill="#4B8B2D"/>
<path d="M18.3264 10.701C18.2589 10.3944 18.2416 10.0788 18.2752 9.7666C18.1796 9.90623 18.1328 10.0735 18.142 10.2425C18.1513 10.4115 18.2161 10.5727 18.3264 10.701Z" fill="#68B42E"/>
<path d="M18.448 11.9644C18.448 11.9644 18.5728 11.4908 18.9824 11.4652C18.7232 11.4044 18.4864 11.654 18.448 11.9644Z" fill="#ABDB91"/>
<path d="M18.4128 10.8418C18.4977 10.68 18.6202 10.5409 18.77 10.4363C18.9198 10.3316 19.0925 10.2644 19.2736 10.2402C19.0866 10.2436 18.9048 10.3026 18.7515 10.4097C18.5982 10.5169 18.4803 10.6673 18.4128 10.8418Z" fill="#ABDB91"/>
<path d="M17.7185 11.1582C17.9311 11.2703 18.1108 11.4357 18.2401 11.6382C18.1294 11.4209 17.9443 11.2505 17.7185 11.1582Z" fill="#ABDB91"/>
<path d="M10.8064 24.0928C10.8064 24.0928 10.6432 22.2336 8.80005 22.1056C9.92005 21.9232 11.0592 22.8704 10.8064 24.0928Z" fill="#D2A677"/>
<path d="M10.6688 23.4269C10.2708 23.132 9.80136 22.9486 9.30884 22.8957C9.83684 22.7421 10.672 23.0397 10.6688 23.4269Z" fill="#7FA95F"/>
<path d="M10.7457 23.7219C10.5541 23.6177 10.3347 23.5762 10.1183 23.6032C9.90194 23.6301 9.69945 23.7243 9.53931 23.8723C9.95851 23.2419 10.7649 23.2867 10.7457 23.7219Z" fill="#4B8B2D"/>
<path d="M10.3456 22.8387C9.90519 22.667 9.42978 22.6044 8.95996 22.6563C9.25756 22.4227 10.208 22.4675 10.3456 22.8387Z" fill="#68B42E"/>
<path d="M10.4225 22.9628C10.4225 22.9628 9.80806 21.766 9.36646 21.542C9.92006 21.7052 10.5601 22.6748 10.4225 22.9628Z" fill="#4B8B2D"/>
<path d="M10.608 23.0401C10.6107 22.6039 10.4825 22.177 10.24 21.8145C10.4849 21.9991 10.6682 22.2534 10.7658 22.5441C10.8635 22.8348 10.8709 23.1482 10.7872 23.4433C10.7409 23.3033 10.6808 23.1682 10.608 23.0401Z" fill="#68B42E"/>
<path d="M10.816 23.8307C10.9661 23.4217 11.1824 23.0401 11.456 22.7011C11.0528 22.6691 10.7744 23.5203 10.7744 23.5203L10.816 23.8307Z" fill="#458B28"/>
<path d="M10.7457 23.1679C10.7511 22.7419 10.6211 22.325 10.3745 21.9775C10.6241 22.0799 10.8449 22.8255 10.7457 23.1679Z" fill="#ABDB91"/>
<path d="M10.2081 22.7391C9.8615 22.6121 9.49017 22.5672 9.12329 22.6079C9.48844 22.5125 9.87621 22.5594 10.2081 22.7391Z" fill="#ABDB91"/>
</svg>