<svg aria-hidden="true" style="position: absolute; width: 0; height: 0; overflow: hidden;" version="1.1"
    xmlns="http://www.w3.org/2000/svg" xmlns:xlink="http://www.w3.org/1999/xlink">
    <defs>
        <symbol id="icon-logo" viewBox="0 0 32 32">
            <path
                d="M29.082 0.314h-4.009c-1.237 0-2.24 0.983-2.24 2.195v3.929c0 1.212 1.003 2.195 2.24 2.195h4.009c1.237 0 2.24-0.983 2.24-2.195v-3.929c0-1.212-1.003-2.195-2.24-2.195z">
            </path>
            <path
                d="M6.73 23.040h-4.318c-1.332 0-2.412 0.983-2.412 2.195v3.929c0 1.213 1.080 2.195 2.412 2.195h4.318c1.332 0 2.412-0.983 2.412-2.195v-3.929c0-1.212-1.080-2.195-2.412-2.195z">
            </path>
            <path
                d="M6.25 11.582h-4.009c-1.237 0-2.24 0.983-2.24 2.195v3.929c0 1.212 1.003 2.195 2.24 2.195h4.009c1.237 0 2.24-0.983 2.24-2.195v-3.929c0-1.212-1.003-2.195-2.24-2.195z">
            </path>
            <path
                d="M17.766 22.978h-4.009c-1.237 0-2.24 0.983-2.24 2.195l-0 3.929c0 1.212 1.003 2.195 2.241 2.195h4.009c1.237 0 2.24-0.983 2.24-2.195v-3.929c0-1.212-1.003-2.195-2.24-2.195z">
            </path>
            <path
                d="M6.25 0.086h-4.009c-1.237 0-2.24 0.983-2.24 2.195v3.929c0 1.212 1.003 2.195 2.24 2.195h4.009c1.237 0 2.24-0.983 2.24-2.195v-3.929c0-1.212-1.003-2.195-2.24-2.195z">
            </path>
            <path
                d="M18.076 11.697h-4.009c-1.237 0-2.24 0.983-2.24 2.195v3.929c0 1.212 1.003 2.195 2.24 2.195h4.009c1.237 0 2.24-0.983 2.24-2.195v-3.929c0-1.212-1.003-2.195-2.24-2.195z">
            </path>
            <path
                d="M29.333 22.978h-4.010c-1.237 0-2.24 0.983-2.24 2.195v3.929c0 1.212 1.003 2.195 2.24 2.195h4.009c1.237 0 2.24-0.983 2.24-2.195v-3.929c0-1.212-1.003-2.195-2.24-2.195z">
            </path>
            <path
                d="M17.591 0.224h-4.009c-1.237 0-2.24 0.983-2.24 2.195v3.929c0 1.212 1.003 2.195 2.24 2.195h4.009c1.237 0 2.24-0.984 2.24-2.196v-3.929c0-1.212-1.003-2.195-2.24-2.195z">
            </path>
            <path
                d="M29.044 11.926h-4.010c-1.237 0-2.24 0.983-2.24 2.195v3.929c0 1.212 1.003 2.195 2.24 2.195h4.009c1.237 0 2.24-0.983 2.24-2.195v-3.929c0-1.212-1.003-2.195-2.24-2.195z">
            </path>
        </symbol>
        <symbol id="arrow-right" viewBox="0 0 32 32">
            <path stroke-linejoin="round" stroke-linecap="round" stroke-miterlimit="10" stroke-width="2"
                d="M19.24 7.906l8.093 8.093-8.093 8.093"></path>
            <path stroke-linejoin="round" stroke-linecap="round" stroke-miterlimit="10" stroke-width="2"
                d="M4.666 16h22.44"></path>
        </symbol>
        <symbol id="bubble" viewBox="0 0 32 32">
            <path stroke-linejoin="miter" stroke-linecap="butt" stroke-miterlimit="10" stroke-width="0.8"
                d="M20.786 16.347c3.778 0 6.84-3.062 6.84-6.84s-3.062-6.84-6.84-6.84c-3.778 0-6.84 3.062-6.84 6.84s3.062 6.84 6.84 6.84z">
            </path>
            <path stroke-linejoin="miter" stroke-linecap="butt" stroke-miterlimit="10" stroke-width="0.8"
                d="M8.48 25.92c2.268 0 4.107-1.839 4.107-4.107s-1.839-4.107-4.107-4.107c-2.268 0-4.107 1.839-4.107 4.107s1.839 4.107 4.107 4.107z">
            </path>
            <path stroke-linejoin="miter" stroke-linecap="butt" stroke-miterlimit="10" stroke-width="0.8"
                d="M22.16 29.333c1.885 0 3.413-1.528 3.413-3.413s-1.528-3.413-3.413-3.413c-1.885 0-3.413 1.528-3.413 3.413s1.528 3.413 3.413 3.413z">
            </path>
        </symbol>
        <symbol id="water" viewBox="0 0 32 32">
            <path stroke-linejoin="round" stroke-linecap="round" stroke-miterlimit="4" stroke-width="0.8"
                d="M24 20v5.333c0 2.2-1.8 4-4 4h-8c-2.2 0-4-1.8-4-4v-6.693l5.187 0.027c0.973 0 1.933 0.227 2.813 0.667s1.84 0.667 2.827 0.667h5.173z">
            </path>
            <path stroke-linejoin="round" stroke-linecap="round" stroke-miterlimit="4" stroke-width="0.8"
                d="M24 14.44v5.56h-5.173c-0.987 0-1.947-0.227-2.827-0.667s-1.84-0.667-2.813-0.667l-5.187-0.027v-4.2c0-0.613 0.347-1.453 0.787-1.893l2.827-2.827c0.24-0.24 0.387-0.587 0.387-0.933v-2.12h8v2.12c0 0.347 0.147 0.693 0.387 0.933l2.827 2.827c0.44 0.44 0.787 1.28 0.787 1.893z">
            </path>
            <path stroke-linejoin="round" stroke-linecap="round" stroke-miterlimit="4" stroke-width="0.6"
                d="M24 21.333v-1.333"></path>
            <path stroke-linejoin="round" stroke-linecap="round" stroke-miterlimit="4" stroke-width="0.6"
                d="M8 19.973v-1.333"></path>
            <path stroke-linejoin="round" stroke-linecap="round" stroke-miterlimit="4" stroke-width="0.8"
                d="M19.333 6.667h-6.667c-1.107 0-2-0.907-2-2s0.893-2 2-2h6.667c1.107 0 2 0.907 2 2s-0.893 2-2 2z">
            </path>
        </symbol>
        <symbol id="trash" viewBox="0 0 32 32">
            <path stroke-linejoin="round" stroke-linecap="round" stroke-miterlimit="4" stroke-width="2.4"
                d="M12 4h8M13.333 14v6.667M18.667 14v6.667"></path>
            <path stroke-linejoin="round" stroke-linecap="round" stroke-miterlimit="4" stroke-width="2.4"
                d="M4 8h24M25.333 8l-0.935 14.026c-0.14 2.104-0.21 3.156-0.665 3.954-0.4 0.702-1.004 1.267-1.731 1.62-0.826 0.4-1.881 0.4-3.99 0.4h-4.025c-2.109 0-3.163 0-3.99-0.4-0.727-0.352-1.331-0.917-1.731-1.62-0.455-0.798-0.525-1.85-0.665-3.954l-0.935-14.026">
            </path>
        </symbol>
        <symbol id="add" viewBox="0 0 32 32">
            <path stroke-linejoin="round" stroke-linecap="round" stroke-miterlimit="4" stroke-width="4" d="M8 16h16">
            </path>
            <path stroke-linejoin="round" stroke-linecap="round" stroke-miterlimit="4" stroke-width="4" d="M16 24v-16">
            </path>
        </symbol>
        <symbol id="arrow-down" viewBox="0 0 32 32">
            <path stroke-linejoin="round" stroke-linecap="round" stroke-miterlimit="10" stroke-width="2"
                d="M26.56 11.933l-8.693 8.693c-1.027 1.027-2.707 1.027-3.733 0l-8.693-8.693"></path>
        </symbol>
        <symbol id="edit" viewBox="0 0 32 32">
            <path stroke-linejoin="round" stroke-linecap="round" stroke-miterlimit="10" stroke-width="2"
                d="M17.68 4.8l-10.947 11.587c-0.413 0.44-0.813 1.307-0.893 1.907l-0.493 4.32c-0.173 1.56 0.947 2.627 2.493 2.36l4.293-0.733c0.6-0.107 1.44-0.547 1.853-1l10.947-11.587c1.893-2 2.747-4.28-0.2-7.067-2.933-2.76-5.16-1.787-7.053 0.213z">
            </path>
            <path stroke-linejoin="round" stroke-linecap="round" stroke-miterlimit="10" stroke-width="2"
                d="M15.853 6.733c0.573 3.68 3.56 6.493 7.267 6.867"></path>
            <path stroke-linejoin="round" stroke-linecap="round" stroke-miterlimit="10" stroke-width="2"
                d="M4 29.333h24"></path>
        </symbol>
        <symbol id="menu" viewBox="0 0 32 32">
            <path stroke-linejoin="round" stroke-linecap="round" stroke-miterlimit="10" stroke-width="2"
                d="M23.387 11.080c1.811 0 3.28-1.469 3.28-3.28s-1.469-3.28-3.28-3.28c-1.812 0-3.28 1.468-3.28 3.28s1.468 3.28 3.28 3.28z">
            </path>
            <path stroke-linejoin="round" stroke-linecap="round" stroke-miterlimit="10" stroke-width="2"
                d="M8.613 11.080c1.812 0 3.28-1.469 3.28-3.28s-1.469-3.28-3.28-3.28c-1.812 0-3.28 1.468-3.28 3.28s1.469 3.28 3.28 3.28z">
            </path>
            <path stroke-linejoin="round" stroke-linecap="round" stroke-miterlimit="10" stroke-width="2"
                d="M23.387 27.48c1.811 0 3.28-1.469 3.28-3.28s-1.469-3.28-3.28-3.28c-1.812 0-3.28 1.468-3.28 3.28s1.468 3.28 3.28 3.28z">
            </path>
            <path stroke-linejoin="round" stroke-linecap="round" stroke-miterlimit="10" stroke-width="2"
                d="M8.613 27.48c1.812 0 3.28-1.469 3.28-3.28s-1.469-3.28-3.28-3.28-3.28 1.468-3.28 3.28c0 1.811 1.469 3.28 3.28 3.28z">
            </path>
        </symbol>
        <symbol id="arrows" viewBox="0 0 32 32">
            <path stroke-linejoin="round" stroke-linecap="round" stroke-miterlimit="4" stroke-width="2"
                d="M13.933 8.96l-4.96-4.96-4.96 4.96"></path>
            <path stroke-linejoin="round" stroke-linecap="round" stroke-miterlimit="4" stroke-width="2"
                d="M8.973 28v-24"></path>
            <path stroke-linejoin="round" stroke-linecap="round" stroke-miterlimit="4" stroke-width="2"
                d="M18.066 23.040l4.96 4.96 4.96-4.96"></path>
            <path stroke-linejoin="round" stroke-linecap="round" stroke-miterlimit="4" stroke-width="2"
                d="M23.026 4v24"></path>
        </symbol>
        <symbol id="close-circle" viewBox="0 0 32 32">
            <path stroke-linejoin="round" stroke-linecap="round" stroke-miterlimit="4" stroke-width="2"
                d="M16 29.333c7.333 0 13.333-6 13.333-13.333s-6-13.333-13.333-13.333c-7.333 0-13.333 6-13.333 13.333s6 13.333 13.333 13.333z">
            </path>
            <path stroke-linejoin="round" stroke-linecap="round" stroke-miterlimit="4" stroke-width="2"
                d="M12.227 19.773l7.547-7.547"></path>
            <path stroke-linejoin="round" stroke-linecap="round" stroke-miterlimit="4" stroke-width="2"
                d="M19.773 19.773l-7.547-7.547"></path>
        </symbol>
        <symbol id="logout" viewBox="0 0 32 32">
            <path stroke-linejoin="round" stroke-linecap="round" stroke-miterlimit="4" stroke-width="2"
                d="M11.867 10.080c0.413-4.8 2.88-6.76 8.28-6.76h0.173c5.96 0 8.347 2.387 8.347 8.347v8.693c0 5.96-2.387 8.347-8.347 8.347h-0.173c-5.36 0-7.827-1.933-8.267-6.653">
            </path>
            <path stroke-linejoin="round" stroke-linecap="round" stroke-miterlimit="4" stroke-width="2"
                d="M20 16h-15.173"></path>
            <path stroke-linejoin="round" stroke-linecap="round" stroke-miterlimit="4" stroke-width="2"
                d="M7.8 11.533l-4.467 4.467 4.467 4.467"></path>
        </symbol>
        <symbol id="arrow-big-right" viewBox="0 0 32 32">
            <path stroke-linejoin="round" stroke-linecap="round" stroke-miterlimit="10" stroke-width="2"
                d="M8 16v-3.56c0-4.413 3.133-6.227 6.96-4.013l6.16 3.573c3.827 2.213 3.827 5.827 0 8.040l-6.16 3.573c-3.827 2.173-6.96 0.373-6.96-4.053v-3.56z">
            </path>
        </symbol>
        <symbol id="arrow-back" viewBox="0 0 24 24">
            <path d="M9.57001 5.93018L3.50001 12.0002L9.57001 18.0702" stroke-miterlimit="10" stroke-linecap="round"
                stroke-linejoin="round" />
            <path d="M20.5 12H3.67" stroke-miterlimit="10" stroke-linecap="round" stroke-linejoin="round" />
        </symbol>
        <symbol id="download" viewBox="0 0 32 32">
            <path stroke-linejoin="round" stroke-linecap="round" stroke-miterlimit="4" stroke-width="2"
                d="M16 2.667v9.333l2.667-2.667"></path>
            <path stroke-linejoin="round" stroke-linecap="round" stroke-miterlimit="4" stroke-width="2"
                d="M16 12l-2.667-2.667"></path>
            <path stroke-linejoin="round" stroke-linecap="round" stroke-miterlimit="4" stroke-width="2"
                d="M2.64 17.333h5.88c0.507 0 0.96 0.28 1.187 0.733l1.56 3.12c0.453 0.907 1.373 1.48 2.387 1.48h4.707c1.013 0 1.933-0.573 2.387-1.48l1.56-3.12c0.227-0.453 0.693-0.733 1.187-0.733h5.813">
            </path>
            <path stroke-linejoin="round" stroke-linecap="round" stroke-miterlimit="4" stroke-width="2"
                d="M9.333 5.507c-4.72 0.693-6.667 3.467-6.667 9.16v5.333c0 6.667 2.667 9.333 9.333 9.333h8c6.667 0 9.333-2.667 9.333-9.333v-5.333c0-5.693-1.947-8.467-6.667-9.16">
            </path>
        </symbol>
        <symbol id="profile" viewBox="0 0 32 32">
            <path stroke-linejoin="round" stroke-linecap="round" stroke-miterlimit="4" stroke-width="2"
                d="M16.16 17.040c-0.093-0.013-0.213-0.013-0.32 0-2.347-0.080-4.213-2-4.213-4.36 0-2.413 1.947-4.373 4.373-4.373 2.413 0 4.373 1.96 4.373 4.373-0.013 2.36-1.867 4.28-4.213 4.36z">
            </path>
            <path stroke-linejoin="round" stroke-linecap="round" stroke-miterlimit="4" stroke-width="2"
                d="M24.986 25.84c-2.373 2.173-5.52 3.493-8.987 3.493s-6.613-1.32-8.987-3.493c0.133-1.253 0.933-2.48 2.36-3.44 3.653-2.427 9.627-2.427 13.253 0 1.427 0.96 2.227 2.187 2.36 3.44z">
            </path>
            <path stroke-linejoin="round" stroke-linecap="round" stroke-miterlimit="4" stroke-width="2"
                d="M16 29.333c7.364 0 13.333-5.97 13.333-13.333s-5.97-13.333-13.333-13.333c-7.364 0-13.333 5.97-13.333 13.333s5.97 13.333 13.333 13.333z">
            </path>
        </symbol>
        <symbol id="settings" viewBox="0 0 32 32">
            <path stroke-linejoin="round" stroke-linecap="round" stroke-miterlimit="10" stroke-width="2"
                d="M16 20c2.209 0 4-1.791 4-4s-1.791-4-4-4c-2.209 0-4 1.791-4 4s1.791 4 4 4z"></path>
            <path stroke-linejoin="round" stroke-linecap="round" stroke-miterlimit="10" stroke-width="2"
                d="M2.667 17.173v-2.347c0-1.387 1.133-2.533 2.533-2.533 2.413 0 3.4-1.707 2.187-3.8-0.693-1.2-0.28-2.76 0.933-3.453l2.307-1.32c1.053-0.627 2.413-0.253 3.040 0.8l0.147 0.253c1.2 2.093 3.173 2.093 4.387 0l0.147-0.253c0.627-1.053 1.987-1.427 3.040-0.8l2.307 1.32c1.213 0.693 1.627 2.253 0.933 3.453-1.213 2.093-0.227 3.8 2.187 3.8 1.387 0 2.533 1.133 2.533 2.533v2.347c0 1.387-1.133 2.533-2.533 2.533-2.413 0-3.4 1.707-2.187 3.8 0.693 1.213 0.28 2.76-0.933 3.453l-2.307 1.32c-1.053 0.627-2.413 0.253-3.040-0.8l-0.147-0.253c-1.2-2.093-3.173-2.093-4.387 0l-0.147 0.253c-0.627 1.053-1.987 1.427-3.040 0.8l-2.307-1.32c-1.213-0.693-1.627-2.253-0.933-3.453 1.213-2.093 0.227-3.8-2.187-3.8-1.4 0-2.533-1.147-2.533-2.533z">
            </path>
        </symbol>
        <symbol id="arrow-up" viewBox="0 0 32 32">
            <path fill="none" stroke="#e3ffa8" style="stroke: var(--color1, #e3ffa8)" stroke-linejoin="round"
                stroke-linecap="round" stroke-miterlimit="10" stroke-width="2.2857"
                d="M26.56 20.067l-8.693-8.693c-1.027-1.027-2.707-1.027-3.733 0l-8.693 8.693"></path>
        </symbol>
        <symbol id="correct" viewBox="0 0 32 32">
            <path
                d="M0 8a8 8 0 0 1 8-8 8 8 0 0 1 8 8 8 8 0 0 1-8 8 8 8 0 0 1-8-8Zm11.619-1.381a.877.877 0 0 0 0-1.238.877.877 0 0 0-1.238 0L7 8.762l-1.381-1.38a.877.877 0 0 0-1.238 0 .877.877 0 0 0 0 1.237l2 2c.34.34.897.34 1.238 0l4-4Z"
                fill="#3CBC81" />
        </symbol>
        <symbol id="error" viewBox="0 0 32 32">
            <path
                d="M0 8a8 8 0 0 1 8-8 8 8 0 0 1 8 8 8 8 0 0 1-8 8 8 8 0 0 1-8-8Zm5.469-1.497L6.94 7.972 5.469 9.469c-.29.293-.29.769 0 1.034.293.319.768.319 1.034 0L7.972 9.06l1.497 1.444c.293.319.769.319 1.034 0 .319-.265.319-.74 0-1.034L9.06 7.972l1.444-1.469c.319-.266.319-.74 0-1.034-.265-.29-.74-.29-1.034 0L7.972 6.94 6.503 5.469c-.266-.29-.74-.29-1.034 0-.29.293-.29.768 0 1.034Z"
                fill="#E74A3B" />
        </symbol>
        <symbol id="eye" viewBox="0 0 32 32">
            <path
                d="M.667 8S3.333 2.667 8 2.667C12.666 2.667 15.333 8 15.333 8S12.666 13.333 8 13.333C3.333 13.333.667 8 .667 8Z"
                stroke="#fff" stroke-width="1.3" stroke-linecap="round" stroke-linejoin="round" />
            <path d="M8 10a2 2 0 1 0 0-4 2 2 0 0 0 0 4Z" stroke="#fff" stroke-width="1.3" stroke-linecap="round"
                stroke-linejoin="round" />
        </symbol>
        <symbol id="eye-off" viewBox="0 0 32 32">
            <g clip-path="url(#a)" stroke="#fff" stroke-width="1.3" stroke-linecap="round" stroke-linejoin="round">
                <path
                    d="M11.96 11.96A6.714 6.714 0 0 1 8 13.333C3.333 13.333.667 8 .667 8A12.3 12.3 0 0 1 4.04 4.04M6.6 2.827a6.08 6.08 0 0 1 1.4-.16C12.667 2.667 15.333 8 15.333 8c-.404.757-.887 1.47-1.44 2.127m-4.48-.714a2 2 0 1 1-2.826-2.826M.667.667l14.666 14.666" />
            </g>
            <defs>
                <clipPath id="a">
                    <path fill="#fff" d="M0 0h16v16H0z" />
                </clipPath>
            </defs>
        </symbol>
    </defs>
</svg>